<?xml version="1.0" standalone="no"?>
<!DOCTYPE svg PUBLIC "-//W3C//DTD SVG 1.1//EN" "http://www.w3.org/Graphics/SVG/1.1/DTD/svg11.dtd" >
<svg xmlns="http://www.w3.org/2000/svg" xmlns:xlink="http://www.w3.org/1999/xlink" version="1.1">
    <metadata>
        Created by FontForge 20181014 at Thu Dec 7 02:01:24 2017
        By convertio
        Copyright(c) Shanghai Yiqi Information Technology Co.,Ltd
    </metadata>
    <defs>
        <font id="jiazhuangyougouti" horiz-adv-x="512">
            <font-face
                    font-family="jiazhuangyougouti"
                    font-weight="400"
                    font-stretch="normal"
                    units-per-em="512"
                    panose-1="2 0 5 0 0 0 0 0 0 0"
                    ascent="409"
                    descent="-103"
                    x-height="215"
                    cap-height="268"
                    bbox="-3 -126 515 476"
                    underline-thickness="0"
                    underline-position="0"
                    unicode-range="U+0020-FFE5"
            />
            <missing-glyph horiz-adv-x="0"
            />
            <glyph glyph-name=".notdef" horiz-adv-x="0"
            />
            <glyph glyph-name="space" unicode=" " horiz-adv-x="200"
            />
            <glyph glyph-name="exclam" unicode="!" horiz-adv-x="157"
                   d="M57 24q2 7 11 9q19 0 31 -11q7 -13 -2 -23q-20 -8 -38 5q-6 9 -2 20zM57 359q5 6 16 6q7 -2 9 -9q-4 -74 1 -155q2 -53 5 -114q-5 -7 -10 -13q-10 0 -14 8q-10 144 -7 277z" />

            <glyph glyph-name="numbersign" unicode="#" horiz-adv-x="350"
                   d="M194 327q1 18 14 16q5 -2 10 -8q-1 -42 1 -85q26 -7 10 -26h-10q-1 -36 -2 -85q31 -2 69 3q13 -7 5 -21q-37 -7 -73 -8q-3 -56 8 -100q-1 -18 -22 -10q-11 56 -11 108q-21 -4 -39 -5q1 -39 4 -81q-17 -25 -24 2q-2 39 -5 72q-35 -5 -69 -6q-6 13 3 23q36 0 65 10
q2 49 2 101q-11 -3 -23 -4q-9 10 -2 19q13 9 28 11q0 35 2 68q9 18 24 0q-3 -31 -2 -68q11 0 37 -1q1 33 0 75zM193 226q-26 3 -37 0q-4 -48 -2 -96q22 3 39 6v90z" />
            <glyph glyph-name="dollar" unicode="$" horiz-adv-x="318"
                   d="M152 363q8 15 21 0q2 -18 2 -36q22 -5 42 -21q14 -18 17 -38q3 -24 -16 -26q-4 18 -10 33q-6 12 -10 15q-13 12 -24 13v-113q31 -13 64 -22q17 -8 20 -21q9 -17 6 -41q-8 -27 -25 -48q-33 -22 -69 -30q-4 -29 -6 -42q-13 -8 -23 4q0 20 1 39q-41 9 -74 31q-10 9 -14 22
q0 14 9 22q13 -22 40 -37q19 -9 41 -12q3 55 3 118q-32 15 -48 47q-7 25 -5 50q3 17 19 38q13 17 38 19q0 19 1 36zM174 162q-4 -57 -4 -108q27 7 50 22q14 18 21 39q1 23 -13 29q-26 14 -54 18zM142 301q-10 -6 -16 -14q-9 -24 -6 -52q3 -11 10.5 -19.5t18.5 -15.5
q4 46 2 102q-4 0 -9 -1z" />
            <glyph glyph-name="percent" unicode="%" horiz-adv-x="311"
                   d="M174 107q14 42 47 39q22 -1 29 -14q7 -5 9 -17q0 -20 -8 -40q-13 -19 -31 -22h-20q-19 8 -25 24q-3 16 -1 30zM227 122q-10 4 -19 -1q-5 -7 -7 -15q-2 -11 2 -23q5 -5 16 -5q7 1 11 9q8 20 -3 35zM85 308q8 2 17 2q14 1 28 -17q15 -31 8 -72q-9 -23 -35 -26q-16 -2 -28 5
q-14 8 -18 22t-3 35q4 34 31 51zM107 286q-22 -2 -26 -31q-2 -14 4 -26q5 -8 17 -6q13 3 14 14q2 30 -9 49zM214 350q8 9 26 0q-65 -172 -143 -344q-22 -5 -23 9q69 166 140 335z" />

            <glyph glyph-name="quotesingle" unicode="'" horiz-adv-x="129"
                   d="M54 304q2 9 12 5q7 -3 10 -13q2 -42 -1 -86q-10 -11 -20 2q-1 48 -1 92z" />
            <glyph glyph-name="parenleft" unicode="(" horiz-adv-x="251"
                   d="M120 412q11 12 30 -1q-43 -77 -62 -166q-9 -42 -5 -81q3 -20 13 -44q16 -39 47 -75q27 -22 56 -42q0 -8 -9 -7q-17 0 -31 5q-17 8 -29 20q-31 34 -51 70q-21 44 -25 87q-1 21 3 44q11 70 43 146z" />
            <glyph glyph-name="parenright" unicode=")" horiz-adv-x="231"
                   d="M55 398q5 9 23 10q16 -14 33 -31q21 -33 41 -74q17 -54 25 -115q4 -52 -10 -100q-13 -44 -52 -84q-11 -13 -33 -21q-23 2 -20 17q19 13 38 29q17 18 29 37q13 31 18 63q6 46 -3 90q-7 43 -24 88q-26 51 -65 91z" />
            <glyph glyph-name="asterisk" unicode="*" horiz-adv-x="307"
                   d="M137 350q5 29 26 0q2 -42 6 -94q32 32 68 54q18 8 13 -18q-21 -16 -41 -36q-19 -17 -37 -39q29 -37 61 -64q1 -24 -24 -20q-21 20 -36 41q0 -29 -1 -53q-5 -13 -15 -15q-7 0 -14 10q2 38 1 77q-28 -26 -58 -55q-19 -8 -22 14q29 33 64 66q-34 39 -71 75q-4 23 23 15
q32 -31 62 -67q-3 57 -5 109z" />
            <glyph glyph-name="plus" unicode="+" horiz-adv-x="280"
                   d="M149 296q12 7 22 -11q4 -31 4 -61q12 3 31 2q23 -6 14 -25q-18 -1 -44 -4v-56t3 -56q-8 -27 -27 -6q-2 23 -2 40q0 46 -4 77q-39 0 -78 -4q-14 10 -10 19q0 7 10 8q40 2 79 4q-1 40 2 73z" />
            <glyph glyph-name="comma" unicode="," horiz-adv-x="209"
                   d="M97 70q3 8 11 10q14 8 28 1q7 -4 13 -17q5 -10 4 -24q-7 -44 -34 -67q-23 -20 -52 -29q-17 12 -8 24q29 15 51 37q10 16 14 24q-20 5 -26 20q-6 12 -1 21z" />
            <glyph glyph-name="hyphen" unicode="-" horiz-adv-x="220"
                   d="M49 228q46 -2 91 -2q23 0 42 -2q10 -15 -3 -21q-66 -2 -132 -2q-8 2 -13 7q-8 14 15 20z" />
            <glyph glyph-name="period" unicode="." horiz-adv-x="157"
                   d="M52 40q-2 33 27 32q11 1 21 -6q7 -8 4 -32q-14 -13 -35 -10q-14 3 -17 16z" />
            <glyph glyph-name="slash" unicode="/" horiz-adv-x="309"
                   d="M234 381q21 13 23 -7q-45 -94 -86 -169q-42 -74 -73 -147q-6 -12 -18 -29q-18 -19 -27 2q78 157 162 310q6 17 19 40z" />
            <glyph glyph-name="zero" unicode="0" horiz-adv-x="234"
                   d="M95 306q20 8 40 6q36 -8 55 -35q23 -27 31 -66q4 -43 0 -58q-7 -78 -35 -121q-16 -27 -43 -32q-18 -4 -30 -3q-22 -1 -43 10q-19 9 -34 26q-7 13 -11 28q-12 96 -6 144q7 37 28 68q20 26 48 33zM152 277q-27 15 -54 5q-23 -11 -42 -50q-6 -13 -11 -45q-4 -34 2 -108
q9 -29 28 -41q7 -5 17 -10q32 -6 58 4q32 38 40 78q11 73 6 98q-15 44 -44 69zM196 403q7 0 13 -7q4 -3 6 -9q2 -2 3 -6q4 -12 2 -25q-1 -10 -7 -23q-6 -15 -12 -26q-2 -3 -5 2l-5 5q-3 5 -4 9v2l-1 1q0 2 1 5q11 14 17 32q3 10 0 15q-8 0 -28 -20q-6 -6 -11 -15
q-3 -3 -4 -6q-2 -1 -2 -3q0 -6 -4 -3q-2 0 -3 1l-2 3q-4 3 -5 8q1 0 0 2l-1 1q-1 3 0 5q4 9 11 19q9 12 21 21q10 10 20 12zM15 385q4 6 14 8q5 0 9 -3h7q11 -5 21 -13q6 -8 13 -20q9 -12 13 -24q1 -3 -3 -3h-9l-8 2l-2 1h-1l-3 3q-6 17 -15 32q-5 9 -12 9q-4 -7 -2 -33
q2 -9 12 -31q0 -4 1 -8q0 -2 1 -3q4 -2 1 -5q-1 -1 -3 -1h-3q-5 0 -10 1q0 1 -2 1h-1q-3 2 -3 3q-5 9 -14 35q-3 13 -4 27t3 22z" />
            <glyph glyph-name="one" unicode="1" horiz-adv-x="105"
                   d="M42 345q1 31 20 3q8 -47 10 -101q-2 -107 -5 -210q2 -26 -19 -25q-8 1 -13 15q18 153 7 318z" />
            <glyph glyph-name="two" unicode="2" horiz-adv-x="261"
                   d="M208 72q-7 3 -15 1q-7 -1 -16 -6l-6 -4l-6 -6q-4 -5 -11 -3l-52 2q-14 0 -22 12q-15 13 -31 5q-5 -4 -5 -10q3 -7 7 -9q4 2 6 15q4 -23 -5 -31q-12 -12 -2 -22q18 -3 28 7q10 11 16 11l59 -1q12 -4 18.5 -12t15.5 -9q14 -8 23 4q7 8 -1 15q-12 12 -12 21l4 14
q3 -11 7 -20l4 10l2 6q2 6 -6 10zM86 91l10 -6q18 20 32 44q27 46 27 103q-3 41 -17 77q-12 15 -27 22q-38 5 -53 -21q-9 -27 -23 -22q-9 12 -2 28q13 24 36 34q20 11 43 6q50 -19 59 -61q4 -16 7 -38q3 -31 -2 -65q-7 -41 -23 -68q-14 -26 -33 -49l32 -2l5 6q13 11 32 15
q15 3 30 -4q15 -8 16 -24q3 -9 -6 -23q9 -21 1 -35q-12 -23 -43 -17q-15 2 -24 12q-10 13 -21 12l-36 2q-8 -1 -13 -9q-12 -14 -37 -12q-32 6 -32 34l3 13q-2 5 -2 12q-3 17 5 28l5 6q10 9 31 10q9 -2 20 -8z" />
            <glyph glyph-name="three" unicode="3" horiz-adv-x="248"
                   d="M43 344q7 13 21 15q48 2 92 -19q21 -10 35 -30q-3 -26 -15 -44q-19 -33 -42 -58q14 -5 33 -14q29 -9 54 -28q11 -13 16 -30q1 -27 -11 -51q-8 -18 -24 -29q-28 -27 -73 -36q-56 -10 -105 -8q-7 2 -11 8q-2 23 7 24q10 -4 26 -6q30 0 79 7q31 7 52 22q21 20 32 43l3 21
q-9 24 -30 31q-37 17 -73 24q-39 -3 -76 -11q-19 4 -11 17q10 12 26 14q30 3 58 7q31 36 43.5 58.5t14.5 30.5q-13 14 -34 24q-39 11 -60 5q-11 -5 -20 -10q-14 5 -7 23z" />
            <glyph glyph-name="four" unicode="4" horiz-adv-x="258"
                   d="M60 306q10 22 16 43q32 10 24 -15q-3 -7 -7 -19q-33 -76 -53 -161q4 -14 14 -24q11 -7 24 -10q17 -1 33 1q9 2 18 6q4 63 -3 118q-6 40 -12 76q6 17 24 0q6 -33 13 -67q5 -56 7 -121q22 5 54 15q8 9 21 13q16 -1 12 -17q-8 -16 -27 -21q-30 -11 -59 -21q-1 -42 3 -86
q-7 -8 -16 -8q-9 1 -13 13q1 40 -3 75q-38 -8 -71 -2q-18 6 -31 21q-11 12 -16 29q21 81 48 162z" />
            <glyph glyph-name="five" unicode="5" horiz-adv-x="244"
                   d="M200 341q-6 1 -14 0q-7 -1 -16 -6l-6 -6l-8 -6q-3 -3 -11 -5l-53 -1q-15 -1 -23 11q-8 9 -19 9q-9 2 -14 -6q-5 -3 -5 -10q4 -7 9 -8q3 3 4 15q5 -24 -2 -32q-14 -13 -3 -24q9 0 15 0.5t14 8.5q10 12 17 11l61 6q12 -3 19 -11.5t16 -10.5q14 -6 26 5q6 10 -3 16
q-12 12 -13 22l3 15q3 -12 8 -19l5 7l2 7q1 8 -9 12zM84 265v-5q0 -32 -3 -62q24 3 56 5q25 -1 48 -12q19 -11 31 -35q14 -25 9 -61q-9 -43 -31 -55q-12 -15 -38 -21q-36 -10 -74 -8q-35 9 -60 30q-16 21 -2 42q10 -17 31 -31q20 -13 53 -15q29 4 53 11q36 19 45 55
q-2 35 -20 55q-15 18 -36 19q-22 1 -42 -3q-23 -5 -47 -11q-10 0 -14 8q4 17 5 82h-2q-35 4 -35 34l3 14q-1 4 -2 13q-4 16 5 30l3 5q11 9 33 11q9 -2 21 -6q12 -8 20 -17l7 -1l24 3l19 1l5 6q13 12 32 17q15 2 32 -3q16 -9 18 -25q3 -11 -7 -25q11 -22 4 -36
q-13 -23 -47 -19q-14 1 -25 11q-9 14 -22 13l-24 -4q-22 0 -25 -9z" />
            <glyph glyph-name="six" unicode="6" horiz-adv-x="192"
                   d="M23 242q15 62 46 119q23 11 19 -13q-27 -53 -43 -113q-7 -30 -2 -50q22 6 46 5q31 -3 54 -18q25 -18 33 -44q3 -23 1 -48q-5 -25 -23 -39q-33 -24 -68 -33q-17 -3 -32 0q-18 9 -26 26q-9 21 -12 43q-8 86 7 165zM72 163q-25 0 -31 -17q-5 -51 6 -91l9 -18q13 -9 35 0
q34 8 58 36q9 23 4 48q-6 17 -19 28q-26 18 -62 14z" />
            <glyph glyph-name="seven" unicode="7" horiz-adv-x="215"
                   d="M18 347q90 -7 183 -25q-22 -32 -32 -68q-11 -63 -16 -124q-2 -54 -5 -104q-18 -13 -22 8q-1 49 2 100q8 93 29 172q-49 6 -105 15q-18 3 -33 10q-12 11 -1 16z" />
            <glyph glyph-name="eight" unicode="8" horiz-adv-x="229"
                   d="M45 335q22 19 52 26l32 1q31 -10 44 -26q27 -33 29 -84q-1 -12 -12 -21q-27 -26 -69 -56q33 -12 51 -23q27 -15 41 -40q5 -17 0 -36q-5 -23 -27 -37q-16 -12 -40 -20q-43 -11 -86 -3q-20 12 -31 32q-4 27 3 52q14 33 43 67q-26 4 -53 48q-11 29 -7 66q7 27 30 54z
M103 156q-11 -5 -26 -27t-24 -56q3 -20 18 -29q18 -7 46 -3q34 6 64 29q12 15 7 35q-7 11 -17 18q-21 17 -68 33zM129 335q-15 3 -28 0q-26 -8 -42 -24q-14 -21 -16 -42q-4 -28 9 -50q16 -21 43 -33q45 33 81 67q0 21 -10 43q-11 24 -37 39z" />
            <glyph glyph-name="nine" unicode="9" horiz-adv-x="206"
                   d="M88 357q15 5 33 4q23 1 41 -12q16 -13 25 -30q9 -43 2.5 -89t-18 -101.5t-9.5 -124.5q-19 -12 -29 4q6 80 19 151q-22 -12 -46 -20q-15 -2 -29 -1q-20 4 -37 16q-18 15 -24 43q-5 48 7 93q8 42 65 67zM145 329q-32 9 -58 -3q-29 -13 -38 -44q-12 -43 -6 -85q8 -23 28 -30
q20 -8 42 4q27 9 44 31l9 50q5 42 -6 63q-7 8 -15 14z" />
            <glyph glyph-name="colon" unicode=":" horiz-adv-x="170"
                   d="M73 145q11 6 26 0q16 -9 17 -31q-2 -15 -18 -22q-13 -6 -29 -2q-9 4 -12 10q-4 10 0 23q2 13 16 22zM56 272q11 15 31 15q18 -8 23 -28q2 -13 -10 -30q-13 -6 -29 0q-11 9 -16 22q-4 12 1 21z" />
            <glyph glyph-name="semicolon" unicode=";" horiz-adv-x="191"
                   d="M102 167q12 3 23 -1q6 -4 10 -12q5 -19 0 -34q-18 -46 -52 -82q-14 -11 -24 -7q-3 7 -4 11q24 27 41 64q3 10 -5.5 12t-11.5 15q-2 12 4 19q7 12 19 15zM83 290q13 10 31 6q12 -3 19 -16q2 -9 -2 -19q-6 -12 -19 -21q-20 -5 -34 4q-8 8 -8 19q1 12 13 27z" />

            <glyph glyph-name="equal" unicode="=" horiz-adv-x="316"
                   d="M55 133q3 10 17 10q93 -1 184 -10q5 -2 6 -10q-5 -14 -24 -13q-80 8 -161 8q-19 2 -22 15zM54 238q84 15 173 16q12 0 18 -8q3 -10 -5 -14q-81 -6 -165 -15q-24 9 -21 21z" />

            <glyph glyph-name="question" unicode="?" horiz-adv-x="329"
                   d="M183 30q26 -4 25 -7q11 -3 16 -10q-1 -15 -20 -17q1 -1 -15 0q-11 6 -12 17q-3 11 6 17zM122 344q11 4 20 3q38 0 71 -18q50 -29 64 -84q-6 -33 -25 -65q-12 -17 -26 -38q-13 -21 -12 -42q-19 -16 -26 10q0 12 4 28q28 40 50 79l5 25q1 14 -5 22q-19 30 -44 44
q-30 15 -58 14q-35 -13 -53 -46q-9 -18 -8 -38q-12 -19 -25 1q1 19 3 34q5 18 18 32q17 25 47 39z" />
            <glyph glyph-name="at" unicode="@" horiz-adv-x="353"
                   d="M156 351q18 1 39 -1q40 -8 76 -34q24 -34 27 -71q3 -50 -8 -99q-13 -43 -51 -56q-14 -3 -27 -2q-12 5 -19 14q-9 -9 -26 -6q-21 1 -35 11q-15 10 -18 28q-3 53 15 100q11 31 43 46q21 2 40 -9q15 -16 17 -40q-1 -16 -6 -35t-8 -43q-3 -17 -2 -32q2 -8 12 -9q13 4 22 12
q20 18 22 43q11 38 5 78q-7 30 -20 55q-27 17 -56 24q-36 5 -60 -10q-39 -31 -47 -75q-16 -62 -9 -123q3 -35 18 -60l19 -19q29 -17 68 -11q20 6 37 13q13 2 16 -6q1 -6 -4 -16q-25 -14 -51 -18q-30 -4 -57 3q-26 9 -46 27q-9 14 -16 30q-13 57 -10 115q0 49 16 93
q11 30 35 54q20 22 49 29zM198 253q-13 5 -24 0q-23 -15 -30 -50q-10 -32 -6 -62q5 -11 16 -17q19 -8 32 1q13 60 19 110q-2 11 -7 18z" />
            <glyph glyph-name="A" unicode="A" horiz-adv-x="287"
                   d="M221 162q-7 1 -15 0q-8 0 -16 -5l-6 -5l-7 -6q-3 -4 -10 -3l-63 2q-14 0 -22 13q-15 13 -31 5q-5 -3 -5 -9q3 -9 8 -10q3 2 5 16q4 -24 -4 -32q-13 -12 -4 -23q19 -2 29 8q9 10 17 10l69 -1q11 -3 18 -12t16 -10q12 -6 23 4q7 10 -1 16q-12 13 -12 21l4 15q2 -12 7 -20
l5 8l1 6q2 7 -6 12zM96 99q-13 -16 -38 -13q-2 -5 -3 -10q-5 -22 0 -39q-7 -11 -20 -6q-14 18 -9 42q4 12 9 24q-10 9 -9 24l3 13q-2 5 -2 11q-3 17 6 29l4 6q10 7 26 8l36 108q8 31 28 15q-21 -62 -40 -129q0 -1 1 -1q11 -5 18 -15l7 -2l52 -1l6 5q9 8 20 12
q-26 95 -45 137q-8 11 -23 9q-14 18 10 23q9 4 28 -4q20 -55 41 -113q6 -25 13 -49q9 -1 17 -4q15 -9 16 -24q3 -9 -6 -23q9 -21 1 -35l-3 -3q11 -36 21 -71q-2 -18 -22 -14l-22 70q-8 -1 -19 1q-13 1 -23 13t-21 11l-46 2q-8 0 -12 -7z" />
            <glyph glyph-name="B" unicode="B" horiz-adv-x="302"
                   d="M86 356q13 5 27 3q46 -15 82 -38q17 -18 16 -40q-4 -51 -32 -83q25 -5 52 -19q24 -13 41 -42q0 -20 -4 -36q-8 -16 -22 -32q-19 -22 -45 -37q-30 -15 -60 -21q-48 -8 -87 7q-9 2 -18 9q-12 24 5 35q5 -5 14.5 -13t18.5 -10q28 -8 70 -1q38 10 67 31q30 25 37 60
q-9 18 -28 30q-32 17 -68 11q-38 -15 -69 -17q-5 -45 -8 -85q-21 -8 -23 18q8 103 8 203q7 19 22 0q1 -53 1 -104q21 -8 47 7q19 13 33 28q17 25 21 50q4 22 -10 35q-28 17 -59 28l-19 -2q-12 -5 -21 -10q-6 8 -4 19q7 12 15 16z" />
            <glyph glyph-name="C" unicode="C" horiz-adv-x="271"
                   d="M126 356q18 5 38 1q46 -15 71 -57q6 -17 6 -39q0 -11 -9 -23q-11 -14 -25 -3q12 21 6 53q-16 31 -46 42q-20 12 -35 -1q-41 -36 -60 -80q-11 -25 -17 -52q-7 -53 11 -99q8 -31 27 -46q12 -10 28 -14q44 -13 77 3q10 9 21 17q22 10 23 -11q-13 -23 -44 -36q-38 -6 -79 0
q-29 7 -47 20q-31 38 -42 89q-4 34 0 67q2 38 20 73q16 33 39 60q15 20 37 36z" />
            <glyph glyph-name="D" unicode="D" horiz-adv-x="293"
                   d="M73 336q14 18 40 17q33 -5 56 -18q26 -17 46 -40q33 -40 46 -90q4 -22 1 -44q-3 -36 -16 -56q-23 -41 -61 -59q-31 -14 -64 -23q-41 -7 -81 -9q-10 3 -11 12q7 19 26 17q0 112 1 226q-4 19 -5 36q2 19 21 6q8 -16 10 -43v-222q11 -3 36 2q25 8 52 21q18 8 34 26
q20 23 29 44q9 33 1 70q-11 43 -41 74q-27 32 -72 45q-21 2 -33 -18q-23 7 -15 26z" />
            <glyph glyph-name="E" unicode="E" horiz-adv-x="281"
                   d="M204 211q-6 1 -15 0q-7 0 -16 -5l-6 -5l-6 -5q-3 -5 -11 -4l-52 3q-14 0 -22 12q-15 14 -31 5q-5 -3 -5 -9q3 -8 7 -10q4 3 6 16q4 -24 -5 -31q-12 -13 -3 -23q19 -2 29 7q9 10 16 10l59 -1q12 -3 18.5 -12t15.5 -10q12 -6 23 5q7 9 -1 15q-12 13 -12 21l5 15
q2 -12 6 -20l5 8l1 7q2 6 -6 11zM47 352q59 0 141 -7q15 -7 25 -20q-1 -18 -24 -15q-5 7 -10 12q-90 7 -152 11q0 16 20 19zM31 229q7 5 16 8q0 29 -2 54q3 5 8 10q11 0 16 -12q3 -28 5 -56q4 -1 8 -3q11 -5 18 -14l7 -3l41 -1l7 6q12 10 30 14q16 2 30 -4q15 -8 16 -24
q3 -8 -6 -23q9 -21 1 -35q-13 -22 -44 -17q-14 1 -23 13q-11 13 -21 12l-36 2q-8 0 -13 -8q-7 -9 -18 -11q-5 -52 -6 -93q101 -7 193 4q7 -10 0 -20q-8 -10 -26 -10q-92 -3 -180 0q-14 4 -13 23q3 49 5 96q-25 7 -24 33l3 13q-2 5 -2 12q-3 16 5 28z" />
            <glyph glyph-name="F" unicode="F" horiz-adv-x="264"
                   d="M215 332q-6 1 -14 0q-8 0 -16 -5l-6 -6l-7 -5q-3 -4 -10 -3l-63 2q-14 0 -22 13q-15 13 -31 5q-5 -3 -5 -10q3 -8 7 -9q4 2 6 16q4 -24 -5 -32q-12 -12 -3 -23q19 -2 29 7q9 11 16 11l70 -1q11 -3 18 -12t15 -10q13 -6 23 4q8 9 -1 16q-11 12 -11 21l4 14q2 -11 6 -19
l6 8l1 6q2 7 -7 12zM90 269q-9 -13 -27 -13q1 -28 1 -63q81 -3 147 -2q15 -26 -16 -25q-67 2 -131 -1q0 -56 4 -125q6 -18 -9 -25q-14 -2 -19 10q-2 123 -4 236q-16 10 -15 30l3 12q-2 6 -2 12q-3 17 5 28l5 7q11 8 31 8q9 -2 20 -7q11 -6 18 -15l7 -2l52 -1l6 5
q13 11 30 15q16 2 31 -4q15 -9 16 -25q3 -8 -7 -23q10 -21 1 -34q-12 -22 -44 -17q-13 1 -23 12q-10 13 -21 12l-46 2q-8 0 -13 -7z" />
            <glyph glyph-name="G" unicode="G" horiz-adv-x="292"
                   d="M93 334q18 12 38 16q39 1 68 -14q22 -14 30 -33q11 -25 13 -57q-3 -35 -27 -24q3 38 -15 74q-9 14 -23 22q-32 15 -62 -4q-21 -17 -34 -43q-20 -47 -26 -100q-2 -38 10 -76q6 -10 11 -20q12 -16 40 -24q47 3 72 21q4 36 2 60q-28 1 -51 -5q-16 0 -19 11q-3 12 6 16
q61 7 124 3q14 -4 11 -14q-13 -12 -39 -11q-9 -63 -10 -127q-17 -12 -26 8q0 15 2 31q-19 -15 -49 -18q-17 -2 -34 -2q-42 16 -59 45q-8 13 -12 28q-9 45 -3 90q6 51 26 98q15 26 36 49z" />
            <glyph glyph-name="H" unicode="H" horiz-adv-x="280"
                   d="M222 232q-6 1 -14 0q-8 0 -16 -6l-6 -5l-7 -5q-3 -4 -10 -3l-63 2q-14 0 -22 12q-15 14 -31 6q-5 -4 -5 -10q3 -8 7 -9q4 2 6 15q4 -24 -5 -31q-12 -13 -3 -23q19 -2 29 7q9 11 16 11l70 -1q11 -3 18 -12t15 -10q13 -7 23 4q8 9 -1 16q-11 12 -11 21l4 14q2 -11 6 -20
l6 9l1 6q2 6 -7 12zM39 249q1 1 2 1q-2 44 -4 84q2 21 19 3q8 -35 10 -79h4q9 -2 20 -8q11 -5 18 -14l7 -2l52 -1l6 5q13 10 30 15q5 1 10 0q0 36 -1 81q6 4 10 6q11 0 16 -13v-82q11 -7 12 -21q3 -8 -7 -23q10 -21 1 -35q-2 -4 -5 -7q1 -59 3 -116q6 -10 9 -19
q-1 -21 -14 -19q-10 5 -18 18q-4 65 -6 126q-6 0 -13 1q-13 1 -23 12q-10 13 -21 12l-46 2q-8 0 -13 -7q-11 -14 -32 -14q-4 -75 -5 -109q-8 -9 -14 -10q-11 1 -11 12q0 60 3 116q-11 10 -10 27l3 12q-2 5 -2 12q-3 17 5 28z" />
            <glyph glyph-name="I" unicode="I" horiz-adv-x="105"
                   d="M34 295q-4 36 11 55q11 2 13 -12q8 -152 13 -306q-1 -12 -12 -15q-11 1 -13 11q-2 87 -7 183q-2 44 -5 84z" />
            <glyph glyph-name="J" unicode="J" horiz-adv-x="199"
                   d="M156 346q5 9 15 3q8 -6 10 -32q1 -99 0 -197q2 -56 -26 -98q-13 -10 -26 -13q-36 -1 -68 8q-13 4 -24 17q-13 24 -18 50q-3 20 3 35q12 11 18 -4q1 -12 3 -29q7 -22 19 -36q31 -21 70 -11q17 22 21 52q6 131 3 255z" />
            <glyph glyph-name="K" unicode="K" horiz-adv-x="270"
                   d="M27 352q6 8 17 -1q10 -19 13 -38q11 -59 10 -111q76 51 127 91q28 4 14 -15q-13 -15 -33 -30q-40 -26 -79 -59q29 -40 68 -70q39 -24 76 -50q6 -17 -10 -15q-39 19 -76 38q-35 30 -86 84q2 -65 12 -131q4 -5 10 -11q3 -20 -15 -22q-7 0 -14 4q-7 8 -10 18q-8 116 -11 230
q-7 44 -13 88z" />
            <glyph glyph-name="L" unicode="L" horiz-adv-x="245"
                   d="M205 81q-6 1 -14 0q-8 0 -16 -5l-6 -5l-7 -6q-3 -4 -10 -3l-63 2q-14 0 -22 13q-15 14 -31 5q-5 -3 -5 -9q3 -9 7 -10q4 2 6 16q4 -24 -5 -31q-12 -13 -3 -23q19 -3 29 7q9 10 16 10l70 -1q11 -3 18 -12t15 -10q13 -6 23 4q8 10 -1 16q-11 13 -11 21l4 15q2 -12 6 -20
l6 8l1 7q2 6 -7 11zM22 99l6 4q6 49 9 88q1 82 -13 152q3 8 14 6q10 -5 14 -17q15 -101 6 -193l-4 -32q9 -2 19 -7q11 -5 18 -15l7 -2l52 -1l6 6q13 10 30 14q16 2 31 -4q15 -8 16 -24q3 -9 -7 -23q10 -21 1 -35q-12 -22 -44 -17q-13 1 -23 13q-10 13 -21 11l-46 3
q-8 0 -13 -8q-12 -16 -37 -12q-33 5 -32 34l3 13q-2 5 -2 11q-3 17 5 29z" />
            <glyph glyph-name="M" unicode="M" horiz-adv-x="307"
                   d="M56 351q7 6 14 2q15 -23 25 -50q33 -114 46 -236q21 135 36 272q6 15 25 8q12 -10 16 -27q28 -142 58 -284q0 -41 -21 -26q-29 155 -59 289q-10 -118 -37 -257q-5 -18 -23 -8q-10 2 -14 12q-16 87 -32 175q-10 43 -19 64q-19 -250 -16 -260q-11 -11 -24 1q-1 69 3.5 152
t21.5 173z" />
            <glyph glyph-name="N" unicode="N" horiz-adv-x="286"
                   d="M226 344q4 9 17 7q7 -2 8 -12q0 -140 7 -298q3 -21 -13 -18q-16 1 -17 17q-17 18 -45 56t-66 95q-29 53 -57 100q-4 -90 -8 -155t2 -90.5t-7 -27.5l-12 4q-7 6 -9 13q3 128 9 267q2 27 19 31q8 3 14 -1q24 -51 57 -103.5t104 -151.5q-1 135 -3 267z" />
            <glyph glyph-name="O" unicode="O" horiz-adv-x="266"
                   d="M71 336q33 17 72 15q40 -6 62 -36q23 -36 30 -73q5 -25 5 -50q1 -50 -10 -98q-9 -32 -32 -60q-20 -21 -44 -28q-31 -3 -56 7q-21 9 -34 24q-12 16 -20 34q-20 53 -18 110q-2 27 2 54q1 61 43 101zM144 327q-38 5 -63 -16q-17 -23 -22 -50q-11 -61 -3 -123q2 -40 23 -73
q12 -21 38 -29q17 -6 37 -1q32 18 47 53q15 48 13 103q-2 44 -18 83q-11 24 -28 43q-11 7 -24 10z" />
            <glyph glyph-name="P" unicode="P" horiz-adv-x="246"
                   d="M75 346q49 2 93 -19q27 -14 42 -38q9 -15 9 -34q-1 -29 -17 -54q-7 -15 -27 -28q-29 -21 -62 -33q-36 -10 -60 -9q-1 -46 0.5 -70t5.5 -30q2 -23 -15 -26q-12 2 -16 9q-2 130 0 266q12 16 23 1q2 -59 2 -121q15 -4 43 2.5t64 31.5q20 15 31 38q3 13 3 26q-4 18 -17 32
q-20 19 -44 27q-22 6 -44 3q-22 -7 -27 -24q-31 8 -18 30q11 16 31 20z" />
            <glyph glyph-name="Q" unicode="Q" horiz-adv-x="297"
                   d="M85 310q11 15 30 19q26 4 52 -3q26 -6 51 -25q31 -39 40 -87q6 -37 1 -68q-6 -38 -28 -83q21 -16 38 -29q10 -25 -8 -24q-11 0 -17 4q-11 13 -29 26q-10 -30 -54 -33q-31 -1 -55 11q-15 12 -27 27q-17 27 -29 59q-19 47 -11 95q8 68 46 111zM146 306q-19 5 -37 -7
q-13 -10 -26 -36.5t-19 -60.5q-2 -25 -1 -43q6 -31 21 -71q9 -22 28 -40q9 -9 24 -14q19 -3 34.5 2t24.5 25q-15 17 -35 35q-10 29 20 17q18 -18 29 -27q14 15 21 42t5 74q-8 41 -29 75q-25 22 -60 29zM246 411q8 0 15 -8q4 -5 6 -10q3 -2 4 -6q4 -13 2 -28q-1 -12 -8 -27
q-6 -15 -13 -28q-2 -3 -5 1l-7 7q-2 6 -4 11v2l-1 1q0 2 2 4q11 16 18 36q4 11 0 18q-9 -1 -30 -23q-8 -8 -13 -16q-3 -3 -5 -9q-1 0 -1 -3q0 -5 -5 -3q-3 0 -4 2l-2 2q-4 5 -5 10q1 1 0 2l-1 1q-2 4 0 5q3 11 12 22q9 14 23 23q11 11 22 14zM26 394q5 7 16 8q5 0 10 -1
q4 0 7 -2q13 -5 24 -14q7 -9 15 -22q9 -14 13 -28q2 -3 -3 -4h-8q-6 2 -11 3l-2 1h-1q-2 3 -3 5q-6 19 -17 35q-6 10 -12 10q-6 -8 -3 -37q3 -10 12 -35q0 -5 2 -8q0 -2 2 -3q4 -3 0 -5q-1 -3 -3 -3h-3q-5 0 -11 2q-1 1 -2 1h-2q-3 2 -3 4q-5 8 -15 38q-4 14 -5 30t3 25z
" />
            <glyph glyph-name="R" unicode="R" horiz-adv-x="287"
                   d="M128 355q13 4 31 0q30 -4 58 -24q19 -18 24 -42q8 -22 2 -50q-4 -18 -19 -38q-21 -27 -50 -40q35 -58 76 -113q12 -31 -12 -28q-47 69 -93 132q-45 -3 -80 -6q-2 -51 0 -101q0 -19 -14 -31q-14 0 -18 9q12 168 2 305q17 3 35.5 11.5t57.5 15.5zM143 333
q-30 -5 -49.5 -13.5t-31.5 -16.5q0 -69 4 -130q57 -3 107 15q21 13 32 28q19 29 15 62q-11 33 -42 49q-18 5 -35 6z" />
            <glyph glyph-name="S" unicode="S" horiz-adv-x="251"
                   d="M108 365q14 2 29 0q19 -1 38 -16q24 -20 36 -51q7 -9 0.5 -24t-19.5 -8q-5 23 -20 50q-10 12 -22 19q-23 11 -44 3q-19 -11 -28 -27q-20 -27 -8 -62q6 -10 16 -19q35 -24 81 -42q34 -20 55 -51q12 -23 7 -52q-3 -30 -30 -55q-19 -13 -37 -19q-33 -8 -68 -4q-17 2 -31 8
q-24 16 -40 35q-7 20 14 21q23 -20 46 -33q40 -12 68.5 -2.5t40.5 26.5q12 16 12 37q2 16 -7 29q-20 25 -51 42q-44 19 -82 44q-18 17 -23 41q-2 19 0 31q2 23 17 43q21 28 50 36z" />
            <glyph glyph-name="T" unicode="T" horiz-adv-x="286"
                   d="M236 334q-6 1 -14 0q-8 0 -16 -5l-6 -6l-7 -5q-3 -4 -10 -3l-84 2q-14 0 -22 13q-15 13 -31 5q-5 -3 -5 -10q3 -8 7 -9q4 2 6 16q4 -24 -5 -32q-12 -12 -3 -23q19 -2 29 7q9 11 16 11l91 -1q11 -3 18 -12t15 -10q13 -6 23 4q8 9 -1 16q-11 12 -11 21l4 14q2 -11 6 -19
l6 8l1 6q2 7 -7 12zM160 276q-4 -126 1 -254q1 -17 -13 -19q-11 1 -16 12q1 133 0 262l-29 1q-8 0 -13 -7q-12 -16 -37 -13q-33 5 -32 35l3 12q-2 6 -2 12q-3 17 5 28l5 7q11 8 31 8q9 -2 20 -7q11 -6 18 -15l7 -2l73 -1l6 5q13 11 30 15q16 2 31 -4q15 -9 16 -25
q3 -8 -7 -23q10 -21 1 -34q-12 -22 -44 -17q-13 1 -23 12q-10 13 -21 12h-10z" />
            <glyph glyph-name="U" unicode="U" horiz-adv-x="288"
                   d="M33 341q4 22 21 5q-4 -76 2 -162q6 -39 16 -77q8 -18 17 -39q20 -27 55 -37q14 0 25 6q13 8 24 21q26 44 36 93q8 63 9 122q-3 34 -1 57q13 19 23 -3q4 -79 -5 -164q-6 -64 -42 -120q-21 -23 -49 -37q-12 -5 -24 -2q-29 9 -54 29q-23 25 -36 59q-24 87 -23 178q1 37 6 71
z" />
            <glyph glyph-name="V" unicode="V" horiz-adv-x="291"
                   d="M243 349q14 12 20 -2q-36 -121 -83 -244q-20 -52 -56 -96q-10 5 -14 13q-20 94 -43 185q-20 61 -40 124q2 13 19 8q13 -25 21 -47q41 -116 60 -234q16 22 43.5 98t72.5 195z" />
            <glyph glyph-name="W" unicode="W" horiz-adv-x="296"
                   d="M124 349q7 9 15 4q31 -148 51 -285q14 43 27 115.5t36 159.5q9 10 16 -3q-19 -129 -40 -212.5t-38 -121.5q-11 9 -14 17q-26 135 -42 248q-6 -132 -36 -258q-17 -13 -17 8q-17 112 -35 222q-8 44 -20 85q-2 13 14 12q10 -14 17 -35q25 -109 34 -219q4 16 11 84t21 179z
" />
            <glyph glyph-name="X" unicode="X" horiz-adv-x="309"
                   d="M213 343q15 24 27 -1q-35 -68 -78 -154q40 -61 105 -142q16 -18 -2 -31q-22 16 -50.5 55t-67.5 95q-34 -62 -69 -119q-26 3 -12 29q36 56 66 112q-46 65 -96 116q0 23 22 12q47 -50 87 -105q34 66 68 133z" />
            <glyph glyph-name="Y" unicode="Y" horiz-adv-x="252"
                   d="M36 340q-7 16 12 16q11 -2 22 -14q25 -55 76 -107q45 82 52 113q16 11 19 -6q0 -19 -6 -33q-20 -41 -43 -84q5 -77 10 -165q2 -24 -4 -47q-6 -6 -14 -6q-7 7 -8 14q1 88 -11 176q-53 60 -72 96.5t-33 46.5z" />
            <glyph glyph-name="Z" unicode="Z" horiz-adv-x="262"
                   d="M198 326q-6 1 -15 0q-7 0 -16 -5l-6 -6l-6 -5q-3 -4 -11 -3l-52 2q-14 0 -22 13q-15 13 -31 5q-5 -3 -5 -10q3 -8 7 -9q4 2 6 16q4 -24 -5 -32q-12 -12 -3 -23q19 -2 29 7q9 11 16 11l59 -1q12 -3 18.5 -12t15.5 -10q12 -6 23 4q7 9 -1 16q-12 12 -12 21l5 14
q2 -11 6 -19l5 8l1 6q2 7 -6 12zM176 244q-8 1 -14 4q-32 -60 -100 -203q32 1 73.5 4t79.5 10q13 2 26 -1q7 -3 7 -14q-1 -6 -8 -9q-64 -3 -114 -9.5t-89 -9.5q-14 -4 -19 9q64 120 126 240q-6 4 -12 3l-36 2q-8 0 -13 -7q-12 -16 -37 -13q-33 5 -32 35l3 12q-2 6 -2 12
q-3 17 5 28l5 7q11 8 31 8q9 -2 20 -7q11 -6 18 -15l7 -2l41 -1l7 5q12 11 30 15q16 2 30 -4q15 -9 16 -25q3 -8 -6 -23q9 -21 1 -34q-13 -22 -44 -17z" />
            <glyph glyph-name="bracketleft" unicode="[" horiz-adv-x="345"
                   d="M75 389q35 -1 77 -5.5t88 -2.5q23 -7 11 -19q-67 -7 -147 -1q-10 -87 -15 -171t3 -144q82 3 168 10q33 1 18 -21q-97 -9 -196 -18q-15 -3 -19 8q-2 175 18 337q-6 3 -13 5q-14 15 7 22z" />
            <glyph glyph-name="backslash" unicode="\" horiz-adv-x="325"
                   d="M57 382q3 6 11 5q103 -164 194 -338q13 -20 2 -35q-5 -3 -10 -3q-60 110 -108 197.5t-86 145.5q-6 15 -3 28z" />
            <glyph glyph-name="bracketright" unicode="]" horiz-adv-x="281"
                   d="M61 389q26 5 54 2q62 -6 113 -24q-11 -23 -16 -47q-5 -38 -5 -73q5 -107 -3 -219q0 -8 -9 -15q-57 -4 -116 1q-6 5 -4 12q5 11 17 10q41 -1 88 1q5 132 2 235q3 44 10 81q-28 9 -58 12.5t-56 3.5q-17 1 -25 12q2 5 8 8z" />
            <glyph glyph-name="asciicircum" unicode="^" horiz-adv-x="266"
                   d="M60 169q33 34 64 78q45 -41 79 -68q13 -26 -13 -25q-30 31 -63 55q-19 -30 -50 -55q-22 -7 -17 15z" />
            <glyph glyph-name="underscore" unicode="_" horiz-adv-x="275"
                   d="M63 224q69 5 142 2q12 -1 13 -11q2 -4 -4 -10q-79 0 -152 -4q-12 13 1 23z" />
            <glyph glyph-name="grave" unicode="`" horiz-adv-x="235"
                   d="M55 232q-5 20 22 17q51 -46 103 -87q-18 -18 -55 12q-37 32 -70 58z" />
            <glyph glyph-name="a" unicode="a" horiz-adv-x="240"
                   d="M81 229q26 5 53 -3q38 -17 48 -57q-9 -56 -18 -97q-2 -28 51 -59q7 -18 -11 -19q-20 10 -36.5 20.5t-22.5 22.5q-13 -16 -40 -20q-22 -4 -38 4q-12 3 -24 16q-11 22 -18 47q-7 59 15 107q15 25 41 38zM131 196q-21 18 -46 6q-11 -8 -22 -19q-19 -40 -15 -93q7 -24 24 -43
q20 -12 42 -1q18 11 27 36q11 46 14 87q-12 23 -24 27z" />
            <glyph glyph-name="b" unicode="b" horiz-adv-x="193"
                   d="M21 274q-2 50 0 86q7 11 19 -4q8 -90 9 -146q15 14 42 17q36 -1 55 -15q22 -25 26 -60q6 -68 -7 -102q-18 -28 -49 -40q-44 -6 -75 4q-16 11 -17 54q6 131 -3 206zM139 179q-11 20 -38.5 23t-48.5 -23q-4 -44 -3 -122q2 -12 11 -21q16 -6 43 -3q22 5 32 18q12 19 14 36
q4 69 -10 92z" />
            <glyph glyph-name="c" unicode="c" horiz-adv-x="233"
                   d="M40 200q22 29 56 40q61 6 93 -34q11 -34 -14 -30q-9 20 -25 31q-13 7 -26 10q-19 2 -32 -4q-30 -18 -41 -51q-10 -45 2 -88q12 -25 41 -35q46 -12 85 1q10 0 14 -7q2 -8 -7 -15q-37 -13 -79 -8q-32 5 -56 24q-18 14 -24 35q-11 47 -2 95q4 19 15 36zM191 327q8 0 14 -6
q3 -4 5 -9q2 -2 3 -6q4 -12 3 -24q-3 -11 -8 -23q-5 -14 -11 -24q-1 -4 -5 1l-5 5q-2 5 -4 9v2v2q0 2 1 3q9 14 16 31q3 10 0 15q-9 0 -28 -19q-5 -7 -10 -15q-2 -2 -4 -6q-1 -1 -1 -3q0 -4 -4 -3q-3 0 -4 2l-2 2q-3 3 -4 8q1 0 0 2h-1q-1 5 0 6q3 8 11 19t19 19
q11 10 19 12zM20 315q4 7 14 8q4 0 8 -2h7q10 -6 21 -13q5 -8 12 -20q9 -11 12 -23q1 -3 -3 -3h-8l-8 2l-2 1h-1q-2 1 -2 3q-6 17 -16 32q-5 8 -11 8q-4 -6 -2 -32q3 -10 11 -30q0 -5 2 -7q0 -2 1 -3q4 -2 1 -6q-2 -1 -3 -1h-3q-5 0 -9 1q-1 1 -2 1h-2q-3 3 -3 4
q-4 7 -13 32q-3 14 -4 27q-1 14 3 21z" />
            <glyph glyph-name="d" unicode="d" horiz-adv-x="227"
                   d="M171 352q6 8 17 9q8 -5 9 -17q-17 -132 -16 -255q-1 -20 9 -32.5t19 -20.5q3 -18 -20 -15q-21 15 -29 33q-19 -18 -41 -35q-24 -13 -57 -12q-19 8 -30 23q-12 28 -14 57q-1 36 11 70q9 24 25 43q12 16 27 19q47 14 78 -29q5 75 12 162zM91 195q-17 -3 -26 -16
q-18 -32 -24 -67q-2 -39 15 -70q26 -13 37 -7t30 21t27 45q7 23 6 49q-11 25 -33 43q-15 5 -32 2z" />
            <glyph glyph-name="e" unicode="e" horiz-adv-x="233"
                   d="M70 226q23 10 49 7q20 -1 33 -11q19 -15 25 -38q7 -15 0 -28q-11 -20 -40 -30q-30 -6 -85 -6q-4 -21 5 -38q7 -17 19 -27.5t33 -12.5q45 -4 93 0q12 -12 -6 -19q-19 -5 -34 -5q-43 -11 -88 9q-24 12 -37 35q-7 13 -9 25q-5 41 4 86q10 32 38 53zM141 198q-18 14 -42 10
q-17 -4 -32 -17q-12 -17 -12 -42q29 -7 63 -5q24 4 38 23q-4 19 -15 31z" />
            <glyph glyph-name="f" unicode="f" horiz-adv-x="229"
                   d="M187 218q-7 3 -14 2q-8 -2 -16 -7l-6 -4l-7 -6q-4 -4 -10 -3l-42 2q-14 0 -22 12q-15 13 -31 6q-5 -5 -5 -11q3 -7 7 -9q4 2 6 15q4 -23 -5 -31q-12 -12 -2 -22q18 -3 28 7q10 11 16 11l49 -1q11 -4 18 -12t15 -9q14 -8 23 4q8 8 -1 16q-11 11 -11 21l3 13q3 -11 7 -20
l5 10l2 6q2 6 -7 10zM97 222q-2 25 2 80q5 40 23 61q10 11 23 13q17 2 28 -3q19 -13 29 -32q7 -12 2 -28q-6 -17 -17 0q-2 10 -6 18q-9 15 -25 21q-16 -1 -23 -19.5t-10 -40.5q-4 -47 0 -72h9l5 5q13 11 31 16q15 2 31 -5q15 -8 16 -24q3 -9 -7 -23q10 -21 1 -35
q-11 -23 -43 -17q-14 2 -24 12q-6 9 -13 11q1 -92 -4 -147q-2 -5 -7 -8q-11 1 -14 11q-1 60 -4 147h-4q-8 -1 -13 -9q-12 -14 -37 -12q-32 6 -32 34l3 13q-2 5 -2 12q-3 17 5 28l5 6q10 9 31 10q9 -2 20 -8t18 -15h3z" />
            <glyph glyph-name="g" unicode="g" horiz-adv-x="242"
                   d="M89 218q18 13 57 8q16 -1 40 -15q25 -19 25 -60q-7 -118 -25 -211q-6 -16 -23 -30q-12 -9 -26 -12q-22 -8 -52 5q-30 15 -48 46q-5 10 -5 20q2 29 23 20q-2 -23 11 -38q10 -19 29.5 -27t38 -2.5t26.5 26.5q13 44 17 77q-10 -8 -27 -11q-16 -1 -42 -1q-27 8 -38 35
q-27 45 -6 124q4 21 25 46zM114 202q-10 -3 -18.5 -14.5t-14 -55.5t10.5 -65q4 -11 10 -22q12 -9 40 -7q21 6 38 23q4 77 5 109q-12 19 -28.5 26t-42.5 6z" />
            <glyph glyph-name="h" unicode="h" horiz-adv-x="192"
                   d="M27 349q6 34 22 8q11 -39 14 -96q-1 -17 -2 -47q11 14 28 14q36 2 62 -21q7 -6 13 -18q10 -67 -2 -179q-4 -6 -8 -5q-11 0 -14 11q9 104 1 161q-3 10 -13.5 17.5t-25.5 9.5t-24 -6q-15 -11 -18 -36q-4 -74 -10 -131q-1 -10 -9 -15q-13 -1 -17 12q13 90 14 185
q3 68 -11 136z" />
            <glyph glyph-name="i" unicode="i" horiz-adv-x="165"
                   d="M67 351q6 9 30 3q18 -11 15 -32q-3 -11 -18 -19q-11 -2 -20 -2q-21 2 -26 30q4 16 19 20zM56 203q-1 -7 -1 -14q1 -6 5 -15l6 -6l5 -6q3 -3 4 -11l-2 -69q0 -14 -12 -21q-8 -7 -8 -17q-2 -8 4 -12q3 -6 10 -6q7 3 8 8q-3 3 -15 4q22 4 30 -3q11 -13 22 -3q1 8 0.5 13
t-8.5 14q-10 9 -9 16l-1 76q3 12 11 17.5t10 14.5q6 12 -4 23q-9 6 -15 -1q-11 -12 -20 -12l-14 3q11 2 18 8l-7 4l-6 2q-7 1 -11 -7zM62 230q10 2 23 -6q19 8 33 1q21 -12 16 -42q-1 -14 -12 -23q-12 -9 -11 -20l1 -43q-1 -20 6 -23q15 -12 12 -36q-6 -32 -33 -31l-12 4
q-5 -2 -12 -3q-16 -3 -27 6l-6 3q-7 10 -8 30q2 9 6 19q8 11 16 18l1 6l-1 15l1 11l1 16l-1 1v17l-5 5q-11 13 -15 31q-1 14 4 28q8 15 23 16z" />
            <glyph glyph-name="j" unicode="j" horiz-adv-x="190"
                   d="M114 186q7 14 20 26q7 7 16 -1q-5 -28 -7 -52q4 -131 12 -201q1 -22 -12 -42q-17 -20 -38 -26q-18 -5 -36 -2q-20 4 -30 24q-5 16 1 33q10 -18 23 -27q15 -5 34 2q17 11 27 27q2 69 -8 208q-25 -10 -25 11q8 13 23 20zM95 322q-6 29 26 27q24 -2 31 -24q5 -25 -16 -26
q-30 -3 -41 23z" />
            <glyph glyph-name="k" unicode="k" horiz-adv-x="235"
                   d="M29 349q8 11 19 4q4 -14 5 -35q0 -88 3 -167q72 54 97 70q14 -3 8 -19q-33 -32 -80 -66q56 -50 126 -87q-3 -23 -33 -13q-62 39 -118 82q0 -51 6 -102q-3 -10 -13 -13q-9 -1 -16 10q-9 165 -4 336z" />
            <glyph glyph-name="l" unicode="l" horiz-adv-x="96"
                   d="M32 348q6 8 16 9q6 0 10 -5q-3 -241 7 -324q4 -16 -11 -23q-11 0 -18 8q-3 99 -4 335z" />
            <glyph glyph-name="m" unicode="m" horiz-adv-x="266"
                   d="M134 208q14 17 39 18q39 -4 49 -26q16 -24 21 -56q4 -60 5 -121q-18 -20 -29 18q7 61 -5 120q-13 27 -37 41q-29 1 -36 -28q-13 -62 -11 -136q-2 -14 -12 -21q-11 2 -16 12q3 64 4 127q0 12 -10 21q-10 5 -22 3q-12 -3 -21 -11q-9 -66 -9 -141q-2 -18 -12 -18
q-12 1 -12 13q-6 90 11 165q29 21 62 16q12 0 26 -18q1 11 15 22z" />
            <glyph glyph-name="n" unicode="n" horiz-adv-x="203"
                   d="M66 230q16 6 40 1q31 -10 49 -30q16 -29 24 -66q7 -62 8 -111q-26 -18 -26 16q-3 35 -6 82q-7 39 -21 67q-13 9 -28 14q-27 8 -44 -3q-9 -9 -18 -24q-6 -55 -1 -139q0 -15 -10 -22q-14 1 -17 15v147q17 42 50 53z" />
            <glyph glyph-name="o" unicode="o" horiz-adv-x="244"
                   d="M91 229q24 7 51 3q26 -7 42 -24q21 -25 33 -58q6 -34 1 -69q-4 -29 -23 -51q-16 -12 -35 -18q-27 -4 -52 -2q-31 12 -52 35q-15 25 -20 49q-4 32 2 62q4 24 18 46q14 19 35 27zM121 205q-19 1 -34 -8q-16 -20 -24 -48q-3 -27 3 -54q1 -24 17 -40q16 -11 30 -19
q31 -5 57 9q38 43 22 98q-9 27 -22 44q-19 23 -49 18zM203 325q9 0 16 -7q3 -5 5 -10q3 -2 4 -7q5 -13 2 -27q-1 -12 -8 -27q-5 -15 -13 -28q-2 -3 -5 1l-6 7l-4 10v3l-1 1q0 2 2 4q11 16 18 36q4 10 0 17q-10 -1 -31 -22q-7 -8 -12 -16q-4 -4 -6 -8q-1 -2 -1 -4q0 -5 -4 -3
q-3 0 -4 1l-2 3l-6 10q2 1 0 2l-1 1q-1 4 0 5q5 11 13 22q9 13 22 23q12 11 22 13zM16 305q5 7 16 8q5 0 10 -2q4 0 7 -1q12 -5 24 -13q7 -10 15 -23q9 -13 13 -27q2 -3 -3 -4h-9q-5 2 -10 2l-2 2h-2q-1 2 -2 3q-6 19 -17 37q-6 10 -14 10q-4 -8 -1 -37q3 -11 12 -35
q0 -5 2 -8q0 -2 2 -3q4 -3 0 -6q-1 -2 -3 -2h-3q-5 0 -11 1q-1 1 -2 1h-2q-3 3 -3 5q-5 8 -15 37q-4 15 -5 31t3 24z" />
            <glyph glyph-name="p" unicode="p" horiz-adv-x="224"
                   d="M60 222q23 9 47 2q25 -5 53 -22q19 -11 30 -30q8 -14 8 -30q2 -16 1 -32q-7 -39 -34 -64q-17 -12 -39.5 -18.5t-72.5 -0.5q-2 -26 3 -122q-15 -14 -31 0q-1 116 0 247q14 10 22 -3q4 -38 4 -75q4 -17 24.5 -22t43.5 2t39 24q20 27 14 57q-2 18 -12 33q-27 24 -66 33
q-12 1 -20 -4q-12 -19 -21 -39q-34 16 -5 52z" />
            <glyph glyph-name="q" unicode="q" horiz-adv-x="210"
                   d="M56 216q26 14 47 15q48 -2 84 -62q-14 -64 -22 -116q-9 -74 -5 -145q1 -9 -15 -12q-11 1 -16 8q1 68 6 129q-41 -7 -70 -1q-16 6 -26 17q-16 37 -16 86q3 58 33 81zM109 202q-23 1 -39 -11q-13 -11 -18 -44q-6 -40 10 -78q6 -10 22.5 -11t55.5 4q9 71 18 90q-6 21 -21 33
q-13 10 -28 17z" />
            <glyph glyph-name="r" unicode="r" horiz-adv-x="210"
                   d="M90 211q10 18 30 24q29 5 60 -8q13 -11 15 -33q-3 -15 -18 -15q-2 19 -18.5 27.5t-35.5 -3.5t-25 -57q-5 -54 -11 -114q1 -14 -11 -20q-12 3 -14 19q9 61 3 117q-25 43 -49 72q5 16 24 2q22 -18 41 -46q0 18 9 35z" />
            <glyph glyph-name="s" unicode="s" horiz-adv-x="196"
                   d="M52 237q20 14 40 18q15 2 33 -4q22 -9 36 -29q9 -17 9 -37q-9 -34 -36 -21q13 16 5 41q-4 9 -13 17q-14 9 -32 8q-27 -4 -32 -29q-6 -22 7 -39q55 -27 97 -54q13 -16 10 -40q-1 -10 -9 -23q-12 -24 -48 -32q-29 -3 -59 6q-22 4 -37 21q-9 18 7 19q26 -8 51 -15
q17 -2 37 0q21 7 28 22q2 15 -4.5 24t-22.5 18q-29 13 -57 22q-10 5 -18 16q-12 28 -10 55q4 20 18 36z" />
            <glyph glyph-name="t" unicode="t" horiz-adv-x="276"
                   d="M178 213q-6 2 -14 0q-8 -1 -16 -6l-7 -5l-5 -5q-4 -5 -11 -5l-31 3q-14 -1 -22 11q-16 13 -32 4q-5 -3 -4 -10q3 -8 7 -9q3 3 5 16q5 -23 -4 -31q-12 -13 -2 -23q19 -3 28 8q10 10 16 10h39q12 -2 19 -10.5t15 -8.5q13 -8 23 4q7 9 -1 15q-13 12 -13 21l4 15q3 -11 7 -20
l4 9l2 6q1 7 -7 11zM77 229q6 -3 13 -8q6 33 14 76q5 8 12 11q20 4 18 -16q-3 -9 -7 -19q-9 -30 -8 -55h9q12 11 31 16q15 3 30 -3q15 -8 17 -24q1 -5 -1 -11q1 -11 -4 -14q8 -20 1 -33q-12 -23 -43 -18q-15 1 -24 12q-11 13 -21 11l-5 1q-3 -23 2 -43q5 -30 20 -49
q9 -11 24 -19q15 -6 32 -5q35 11 63 38q17 -8 7 -28q-18 -17 -39 -29q-14 -7 -29 -10q-17 0 -36 4q-29 12 -50 35q-20 43 -21 64q-1 10 0 30q-12 -11 -33 -9q-32 5 -33 33l3 13q-2 5 -2 11q-3 17 4 29l5 6q10 10 30 11q9 -3 21 -8z" />
            <glyph glyph-name="u" unicode="u" horiz-adv-x="239"
                   d="M150 220q7 15 17 12q5 -1 9 -7q0 -63 -11 -129q2 -23 17 -41q12 -12 32 -14q10 -17 -2 -22q-20 0 -37 9q-16 12 -25 28q-16 -32 -66 -45q-23 0 -41 15q-15 15 -20 35q-6 84 7 168q9 16 23 -5q-8 -67 -6 -134q-2 -17 5.5 -33.5t27.5 -17.5q19 3 32.5 15.5t26.5 37.5
q11 62 11 128z" />
            <glyph glyph-name="v" unicode="v" horiz-adv-x="245"
                   d="M202 225q6 6 15 6q16 -7 3 -25q-55 -93 -101 -192q-49 94 -99 191q1 17 22 7q40 -70 77 -142q15 36 34.5 69.5t48.5 85.5z" />
            <glyph glyph-name="w" unicode="w" horiz-adv-x="268"
                   d="M235 226q8 11 17 3q0 -33 -10 -67q-19 -70 -61 -136q-38 59 -62 111q-15 -56 -44 -124q-10 3 -13 12q-24 94 -46 177q3 26 21 7q18 -79 39 -132q24 54 37 132q4 1 8 -1q11 -46 57 -135q21 30 35 71.5t22 81.5z" />
            <glyph glyph-name="x" unicode="x" horiz-adv-x="275"
                   d="M133 142q28 52 62 95q27 9 21 -17q-33 -36 -62 -94l97 -83q7 -16 -5 -23q-20 11 -50 35.5t-57 45.5q-33 -35 -57 -84q-24 -9 -25 12q27 44 60 89q-62 50 -89 68q-13 21 6 17q24 -8 99 -61z" />
            <glyph glyph-name="y" unicode="y" horiz-adv-x="201"
                   d="M160 215q16 18 25 -5q-8 -14 -29.5 -90t-50.5 -173q-7 -27 -31 -47q-7 -5 -12 0q-12 6 -11 18l22 14q23 49 31 103q-52 67 -88 165q7 23 23 3q28 -64 76 -145q20 99 45 157z" />
            <glyph glyph-name="z" unicode="z" horiz-adv-x="251"
                   d="M182 209q-7 2 -15 0q-7 -1 -16 -5l-6 -7l-5 -5q-4 -4 -12 -4l-30 2q-14 -1 -23 12q-15 12 -31 4q-5 -4 -4 -11q3 -7 7 -9q3 2 5 16q5 -23 -3 -32q-13 -12 -3 -23q19 -1 29 8q9 12 17 12h37q12 -2 19 -10.5t15 -9.5q14 -6 23 5q7 10 -1 16q-13 12 -13 21l4 14q3 -12 7 -20
l4 9l2 6q1 7 -7 11zM163 126q-8 1 -15 5q-39 -44 -77 -89q76 -1 147 5q22 -2 11 -21q-92 -7 -203 -12q-6 7 -2 16q42 37 106 116q-6 4 -12 3l-15 1q-8 0 -12 -7q-12 -17 -37 -15q-33 5 -34 34l3 13q-2 5 -2 11q-4 18 3 29l5 7q11 8 31 9q8 -1 20 -6q12 -6 19 -15l7 -1h20
l5 5q13 11 31 16q16 3 30 -3q16 -8 17 -23q3 -10 -5 -23q10 -21 3 -35q-11 -23 -44 -20z" />
            <glyph glyph-name="braceleft" unicode="{" horiz-adv-x="209"
                   d="M87 401q14 19 33 15q17 1 31 -13q5 -6 6 -19q-8 -14 -19 -12q-1 12 -11 20q-11 0 -18 -4q-6 -35 2 -79q6 -33 8 -76q-1 -41 -26 -53q18 -9 23 -22q7 -39 -2 -66q-6 -38 20 -71q18 -27 -9 -27q-21 15 -27 37q-9 28 -8 61q9 32 4 52q-33 13 -41 39q12 6 26 18q13 12 17 26
q-5 55 -10 103q-4 37 1 71z" />
            <glyph glyph-name="bar" unicode="|" horiz-adv-x="150"
                   d="M71 5q-2 47 -10 179.5t-7 227.5q13 10 20 -9q7 -205 23 -399q-2 -7 -12 -8q-8 -4 -14 9z" />
            <glyph glyph-name="braceright" unicode="}" horiz-adv-x="175"
                   d="M73 416q19 4 33 -15q5 -34 1 -71q-5 -48 -10 -103q4 -14 17 -26q14 -12 26 -18q-8 -26 -41 -39q-5 -20 4 -52q1 -33 -8 -61q-6 -22 -27 -37q-27 0 -9 27q26 33 18 71q-9 27 0 66q3 18 23 22q-25 12 -26 53q2 43 8 76q8 44 2 79q-7 4 -18 4q-10 -8 -11 -20q-11 -2 -19 12
q1 13 6 19q14 14 31 13z" />
            <glyph glyph-name="asciitilde" unicode="~" horiz-adv-x="344"
                   d="M93 252q7 7 19 8q24 3 45 -14q18 -14 34.5 -25t35.5 -14q22 7 44 25q23 -1 13 -26q-20 -14 -48 -24q-9 -3 -15 -3q-49 21 -86 53q-16 12 -30.5 -3t-25.5 -54q-15 -13 -19 -1.5t-3 20.5q8 31 36 58z" />


        </font>
</defs>
</svg>
