<?xml version="1.0" standalone="no"?>
<!DOCTYPE svg PUBLIC "-//W3C//DTD SVG 1.1//EN" "http://www.w3.org/Graphics/SVG/1.1/DTD/svg11.dtd" >
<svg xmlns="http://www.w3.org/2000/svg" xmlns:xlink="http://www.w3.org/1999/xlink" version="1.1">
    <metadata>
        Created by FontForge 20181214 at Fri Sep 21 08:06:19 2018
        By convertio
        For commercial use, please purchase permission to authorize business:
        www.reeji.com QQ:2770851733 Mail:Reejifont@outlook.com
        (c) 2018 by Shang hai Rui Xian Creative Design Co., Ltd..All rights reserved.
    </metadata>
    <defs>
        <font id="REEJI-Beauty-LollipopGB-Regular" horiz-adv-x="1000" vert-adv-y="1000">
            <font-face
                    font-family="REEJI-Beauty-LollipopGB"
                    font-weight="400"
                    font-stretch="normal"
                    units-per-em="1000"
                    panose-1="2 1 6 4 0 0 0 0 0 0"
                    ascent="880"
                    descent="-120"
                    x-height="381"
                    cap-height="653"
                    bbox="-433 -747.409 1057 1431.65"
                    underline-thickness="50"
                    underline-position="-150"
                    unicode-range="U+0020-FFE5"
            />
            <missing-glyph
            />
            <glyph glyph-name=".notdef"
            />
            <glyph glyph-name="space" unicode=" " horiz-adv-x="700"
            />
            <glyph glyph-name="A" unicode="A" horiz-adv-x="699"
                   d="M649 34q0 -16 -13 -24q-8 -5 -15 -5t-13.5 3.5t-10.5 10.5q-11 16 -30.5 70.5t-30.5 143.5h-182q-28 -59 -55.5 -98.5t-59.5 -65.5l54 -2q12 0 20 -8.5t8 -20.5q-1 -11 -9 -19t-19 -8h-1l-190 6q-12 1 -20 9.5t-7 19.5q0 12 8.5 20t20.5 7l34 -1q1 1 7 4q50 24 86 63
t76 126q1 8 7 14l9 21q8 18 31 74q34 86 78 146.5t89 97.5q-34 3 -75 3q-70 0 -134.5 -9.5t-104.5 -29.5q-49 -24 -75 -57.5t-26 -71.5q0 -23 9.5 -43t26.5 -32q20 -14 50 -14q14 0 29 5q28 9 36 36q3 11 3 19q0 13 -6 22t-16 12q-3 1 -8 1q-8 0 -12 -4q-7 -8 -5 -12
q2 -13 -6.5 -23.5t-21.5 -10.5q-10 0 -17.5 6.5t-9.5 16.5q-1 4 -1 12q0 15 6 29t18 23q21 19 49 19q14 0 25 -4q30 -9 45.5 -33.5t15.5 -54.5q0 -16 -5 -34q-7 -26 -26 -45t-46 -28q-24 -8 -48 -8q-48 0 -81 24q-28 20 -44 52t-16 69q0 42 27 92t106 88q46 22 118 33
t149 11q94 0 152 -14q10 -2 15.5 -9.5t5.5 -18.5q0 -17 -16 -25l-19 -12l-1 -23q0 -14 -2 -60.5t-2 -92.5q0 -79 6 -154q5 -65 17.5 -114t25.5 -79t13 -27q4 -7 4 -14zM380 289h151q-4 57 -4 129q0 79 3 131q-76 -76 -124 -196z" />
            <glyph glyph-name="B" unicode="B" horiz-adv-x="748"
                   d="M698 191q0 -62 -40 -103q-67 -71 -234 -71q-112 0 -253 29q-10 2 -16.5 10t-6.5 18q0 13 10.5 21t23.5 6l57 -10q3 3 9 5q42 15 60 49.5t23 58.5l55 431q-114 -9 -176 -39q-49 -24 -76.5 -58.5t-27.5 -72.5q0 -25 10 -45.5t27 -30.5q22 -15 50 -15q14 0 27 5q25 9 34 37
q3 11 3 19q0 13 -6.5 22.5t-16.5 12.5q-3 1 -8 1q-8 0 -13 -4q-7 -8 -5 -13q2 -13 -6 -23.5t-21 -10.5q-10 0 -18 6.5t-10 16.5q-1 4 -1 13q0 31 24 52q22 20 50 20q7 0 25 -4q31 -10 46.5 -35t15.5 -56q0 -15 -5 -33q-17 -54 -68 -74q-19 -8 -46 -8q-43 0 -81 23
q-30 19 -46.5 51t-16.5 70q0 56 35.5 104.5t100.5 80.5q81 40 227 45h7q51 1 97.5 -3t78.5 -12h2q35 -11 65 -42.5t30 -81.5q0 -21 -5 -39q-11 -44 -56 -77t-107 -56q144 -46 167 -141q6 -25 6 -49zM442 636l-29 -230q75 16 142.5 49.5t77.5 72.5q4 18 4 25q0 31 -19 48
t-36 22q-55 13 -140 13zM642 192q0 18 -4 34q-14 57 -88.5 86t-143.5 35l-19 -150v-1q-7 -29 -19 -58.5t-43 -58.5q55 -6 98 -6q142 0 194 54q25 25 25 65z" />
            <glyph glyph-name="C" unicode="C" horiz-adv-x="628"
                   d="M422 55.5q69 39.5 126 110.5q6 8 6 17q0 14 -11 23q-7 6 -17 6q-14 0 -22 -11q-49 -61 -107 -95t-112 -34h-1q-79 0 -136 72q-42 53 -42 135q0 34 7 71q10 54 32 101t44 71q43 49 111 77t122 28q32 0 56 -10t34 -26q10 -13 10 -33q0 -10 -3 -22q-3 -15 -13 -25.5
t-22 -13.5q-6 -2 -9 -2q-10 0 -17 7q-9 9 -9 16q0 8 8 16q9 8 9 21q0 11 -7 18q-9 10 -22 10q-11 0 -18 -7q-26 -26 -26 -56q-2 -31 25 -58q23 -23 56 -23q36 0 64 24.5t36 60.5q4 24 4 34q0 35 -19 65q-32 46 -105 58q-18 2 -30 2q-66 0 -145 -32t-132 -91
q-38 -42 -67.5 -121.5t-29.5 -158.5q0 -103 54 -171q36 -46 82 -69.5t98 -23.5h1q68 0 137 39.5z" />
            <glyph glyph-name="D" unicode="D" horiz-adv-x="822"
                   d="M750.5 414.5q1.5 -10.5 1.5 -33.5q0 -61 -20 -119q-26 -74 -90.5 -136t-183.5 -92q-31 -8 -51 -11t-48 -3q-48 0 -93.5 6t-75.5 12.5t-40 9.5q-11 3 -17 13.5t-3 21.5q3 9 10.5 14.5t16.5 5.5q5 0 8 -1q2 0 13.5 -3t41.5 -10q40 32 58 66.5t24 56.5l45 386
q-87 -7 -143 -34q-46 -24 -72 -55.5t-26 -66.5q0 -21 9.5 -39.5t26.5 -28.5q23 -13 46 -13q15 0 24 4q22 7 30 33q3 9 3 17q0 12 -5.5 20.5t-14.5 10.5q-2 1 -7 1q-6 0 -10 -4q-5 -4 -5 -9q2 -14 -6 -24.5t-21 -10.5q-10 0 -18 6.5t-10 16.5q-1 4 -1 12q0 31 23 51
q21 19 48 19q8 0 24 -4q29 -9 44 -32.5t15 -53.5q0 -15 -5 -32q-7 -25 -24 -43t-40 -27q-22 -8 -44 -8q-40 0 -76 22q-29 18 -45.5 48.5t-16.5 65.5q0 52 34 98t96 76q44 21 105 32t124 11q80 0 133 -14q24 -4 63.5 -22t83 -65.5t60.5 -128.5v-1q0 -1 1.5 -11.5z
M643.5 209.5q52.5 84.5 52.5 169.5q0 25 -3 37q-14 66 -49.5 104.5t-69 53t-42.5 14.5h-2q-52 13 -126 13l-47 -397v-2q0 -1 -4 -18t-20.5 -48t-40.5 -57q34 -2 53 -2q54 0 99 11q147 37 199.5 121.5z" />
            <glyph glyph-name="E" unicode="E" horiz-adv-x="754"
                   d="M711 153q0 -9 -4 -14q-41 -68 -99 -93.5t-107 -26.5q-7 -1 -12 -0.5t-6 0.5l-252 13q-8 -2 -10 -2q-7 0 -15 3l-120 6q-11 0 -19 9t-7 20q0 12 9 20t20 7l128 -6q43 25 61.5 67.5t22.5 68.5l11 136v3q0 5 1 7l19 232l-30 -4q-79 -11 -132.5 -51.5t-64.5 -96.5
q-2 -14 -2 -20q0 -34 21 -54q19 -17 42 -17q15 0 26.5 6.5t16.5 15.5q3 6 3 13q0 5 -2 13l-4 8q-3 0 -5 -2q-13 -7 -25 -7t-19 6.5t-7 16.5q0 15 17 29q3 3 14.5 8t24.5 5q10 0 15 -2q27 -6 41 -41q7 -19 7 -34q0 -20 -11 -40q-20 -38 -68 -49l-21 -3q-48 -2 -84 33
q-19 18 -28.5 42.5t-9.5 51.5q0 16 3 31q14 74 80.5 127t162.5 67q93 14 283 14q46 0 61.5 -0.5t17.5 -0.5q12 0 20 -8.5t8 -20.5q-1 -12 -9 -20t-20 -7q-1 0 -14.5 0.5t-62.5 0.5q-108 0 -188 -5l-18 -217l140 -3q33 1 59 23q8 6 18 6q13 0 22 -10q6 -7 6 -18
q0 -13 -10 -22q-38 -31 -92 -35h-5l-143 3l-9 -115l-1 -2q0 -6 -5 -27.5t-18 -51t-35 -55.5l188 -9h1q36 0 85 15t87 78q8 13 24 13q7 0 14 -4q14 -8 14 -24z" />
            <glyph glyph-name="F" unicode="F" horiz-adv-x="774"
                   d="M705 670.5q8 -8.5 8 -19.5q0 -12 -8.5 -20t-20.5 -8q-1 0 -17 0.5t-75 0.5q-105 0 -184 -5l-19 -231l148 -2h1q15 0 32 5.5t31 17.5q7 7 19 7q14 0 21 -10q6 -7 6 -18q0 -13 -10 -22q-41 -33 -95 -37h-6l-152 3l-10 -122v-2q0 -1 -4 -22t-20 -57t-39 -63h59
q11 0 19.5 -8.5t8.5 -19.5q0 -12 -8 -20t-19 -9h-1h-197q-11 0 -19.5 8t-8.5 20q0 11 8 19.5t20 8.5h49q49 25 70.5 73.5t25.5 76.5l12 146v1v3l21 250l-38 -5q-83 -12 -139.5 -55t-67.5 -102q-3 -12 -3 -23q0 -16 6 -31t17 -26q18 -18 43 -18q4 0 14 2q25 5 34 23q4 7 4 15
q0 7 -3 13q-3 9 -5 9q-4 0 -6 -2q-7 -6 -17 -6q-14 0 -23 11q-5 6 -5 16q0 15 11 24q3 3 15 8.5t25 5.5q5 0 15 -2q29 -9 43 -43q6 -16 6 -34q0 -22 -10 -41q-22 -41 -71 -52q-14 -3 -26 -3q-23 0 -44.5 9t-38.5 25q-19 19 -29.5 44t-10.5 54q0 16 3 32q15 78 84.5 133
t170.5 70q95 14 288 14q53 0 72 -0.5t21 -0.5q11 0 19 -8.5z" />
            <glyph glyph-name="G" unicode="G" horiz-adv-x="561"
                   d="M406.5 589.5q6.5 -7.5 6.5 -16.5q0 -10 -8 -18t-23 -12h1q-8 0 -11 -9v-2q0 -5 4 -10q8 -8 22 -8q22 0 35 12.5t18 27.5q4 14 4 23q0 17 -8 30q-18 29 -70 29q-28 0 -60 -8q-28 -7 -71.5 -33.5t-83.5 -74.5t-50 -115q-6 -45 -6 -78q0 -68 21.5 -102.5t60.5 -54.5
q22 -11 54 -11q33 0 69 11.5t63.5 27t36.5 25.5l18 125h-145q-12 0 -20 8.5t-8 19.5q0 12 8 20t20 8h178q14 0 21 -9q9 -12 6 -23l-23 -157q1 -4 0 -8l-1 -4l-23 -159q0 -3 -1 -5q-2 -9 -15.5 -34t-41 -53t-68.5 -41q-31 -10 -64 -10q-46 0 -84.5 17.5t-55.5 41.5
q-5 8 -5 16q0 14 12 23q6 5 17 5q14 0 22 -11q8 -12 34.5 -24t59.5 -12q25 0 47 7q38 12 59.5 41t28.5 50l13 93q-18 -10 -23 -12q-71 -33 -136 -33q-45 0 -78 17q-58 28 -85.5 78t-27.5 127q0 43 7 88q12 80 58 137.5t99 90t90 41.5q35 10 73 10q36 0 67.5 -13t50.5 -43
q16 -25 16 -58q0 -23 -7 -43q-8 -25 -26 -43.5t-41 -26.5q-18 -7 -39 -7q-37 0 -63 26q-19 19 -19 48q0 15 5 25q11 25 30.5 34.5t37.5 7.5q11 -2 17.5 -9.5z" />
            <glyph glyph-name="H" unicode="H" horiz-adv-x="864"
                   d="M857 714.5q8 -8.5 7 -20.5q-2 -11 -10.5 -19t-20.5 -7q-5 2 -26.5 -0.5t-50.5 -14.5t-54 -37q-34 -35 -55.5 -122t-32 -182t-11.5 -162v-1l-4 -53l63 32q6 3 12 3q18 0 26 -16q3 -6 3 -12q0 -8 -4.5 -14.5t-11.5 -10.5l-106 -54q-6 -3 -13 -3q-9 0 -15 5q-13 7 -13 25
l7 101q0 38 7 123h-223l-13 -113v-3q0 -1 -3.5 -13t-14.5 -33.5t-25 -39.5l16 -1q12 0 20 -9t7 -20q0 -11 -8.5 -19t-19.5 -8h-1l-140 5q-12 1 -20 9.5t-7 19.5q0 12 8.5 20t20.5 7l44 -2q31 18 47 47.5t20 47.5l37 324q-11 0 -27 -2q-64 -8 -108.5 -38.5t-54.5 -75.5
q-2 -12 -2 -19q0 -25 14 -39t31 -14q24 0 32 16q2 3 2 9q0 5 -1 8l-1 4q-10 -2 -14 -2q-13 0 -21.5 6.5t-8.5 15.5q0 12 13 24q17 11 34 11q10 0 15 -2q25 -6 36 -38q5 -15 5 -27q0 -21 -10 -37q-12 -20 -33.5 -32t-48.5 -12q-41 0 -70 31q-31 31 -31 77q0 17 4 32
q14 63 72 106t140 52q20 2 64 4q13 0 22 -9q8 -10 7 -22l-22 -190h223q13 107 37.5 195t64.5 129q34 34 72.5 49.5t67.5 18.5t36 1q11 -1 19 -9.5z" />
            <glyph glyph-name="I" unicode="I" horiz-adv-x="475"
                   d="M373 199q-5 -20 -18.5 -52t-42.5 -65l55 -2q11 -1 19 -9.5t8 -19.5q-1 -12 -9 -20t-19 -8h-1l-179 7q-11 0 -19 9t-8 20q1 12 9.5 20t20.5 7l38 -1q42 23 62.5 60t28.5 65l48 420q-29 -2 -44 -4q-83 -9 -141.5 -50t-71.5 -100q-3 -13 -3 -26q0 -35 22 -56q18 -18 42 -18
q8 0 12 1q28 6 38 22q3 6 3 13q0 10 -3 16q-2 6 -5 9q-2 0 -3.5 -1t-2.5 -1q-6 -5 -17 -5q-14 0 -22 11q-5 6 -5 17q0 14 11 22q3 3 15 8t26 5q10 0 15 -2q30 -11 41 -45q6 -16 6 -34q0 -23 -10 -40q-23 -38 -74 -50q-12 -3 -25 -3q-47 0 -82 35q-38 38 -38 97q0 20 4 37
q18 77 89 130t173 64q15 2 29.5 3t27.5 2q15 0 23 1q13 0 22 -9q9 -10 7 -23l-51 -454z" />
            <glyph glyph-name="J" unicode="J" horiz-adv-x="522"
                   d="M290 -22q54 35 84.5 99.5t39 109t15.5 93.5l43 384v3q0 10 -7 19q-9 9 -22 9q-47 -2 -68 -4q-88 -10 -149 -55.5t-76 -112.5q-4 -15 -4 -32q0 -51 34 -85q14 -15 32.5 -23t38.5 -8q11 0 23 3q47 11 65 44q9 17 9 36q0 13 -5 30q-11 34 -37 40q-5 2 -16 2q-18 0 -35 -11
q-12 -9 -12 -23q0 -8 5 -16q7 -12 22 -12q10 0 17 6h1l2 -4q2 -6 2 -12t-2 -9q-7 -12 -29 -16q-3 -1 -10 -1q-17 0 -32 13q-17 19 -17 47q0 7 2 19q11 49 59.5 82.5t117.5 41.5q18 2 31 2l-39 -351l-1 -1q0 -8 -4.5 -39.5t-15.5 -67.5q-13 -47 -35.5 -88.5t-57.5 -64.5
q-1 0 -22 -12.5t-56 -12.5q-48 0 -79 47q-10 13 -24 13q-7 0 -15 -5q-13 -10 -13 -24q0 -7 5 -15q39 -58 99 -70q18 -2 27 -2q52 0 109 34z" />
            <glyph glyph-name="K" unicode="K" horiz-adv-x="832"
                   d="M782 109q0 -11 -8 -19q-46 -49 -98 -49h-8q-26 2 -47 15t-34 26.5t-14 17.5l-184 269q-2 2 -4 8l-20 -177v-3q-16 -66 -59 -113l31 -1q12 -1 20 -9.5t8 -19.5q-1 -12 -9 -19.5t-20 -7.5h-1l-172 6q-11 0 -19 8.5t-8 20.5q1 11 9.5 19.5t19.5 7.5l56 -2q41 22 62.5 61
t25.5 60l46 405q-28 -2 -41 -4q-80 -9 -136 -48.5t-69 -96.5q-3 -12 -3 -24q0 -33 21 -54q17 -17 40 -17q8 0 12 1q27 6 35 21q3 6 3 13q0 6 -2 14q-2 5 -5 8l-5 -2q-8 -5 -16 -5q-14 0 -23 12q-5 8 -5 16q0 14 12 23q3 3 14 8t24 5q8 0 17 -3q28 -9 40 -43q6 -16 6 -33
q0 -20 -10 -40q-22 -37 -73 -49q-12 -3 -24 -3q-22 0 -43 9t-37 25q-18 18 -27.5 42.5t-9.5 52.5q0 20 4 36q17 75 86.5 126t167.5 62q23 3 78 5h2q11 0 20 -9q8 -10 7 -22l-27 -239q0 1 2 3q43 53 120.5 136t121.5 103q46 21 88 21q23 0 44 -7q9 -4 13.5 -11t4.5 -16
q0 -4 -2 -10q-4 -8 -11.5 -13t-16.5 -5q-3 0 -9 2q-1 0 -6.5 1.5t-17.5 1.5q-29 0 -63 -15q-28 -13 -90.5 -77t-118.5 -131l172 -252q11 -14 25.5 -24t30.5 -10q29 0 58 32q8 8 21 8q12 0 19 -7q9 -9 9 -21z" />
            <glyph glyph-name="L" unicode="L" horiz-adv-x="687"
                   d="M637 145q0 -8 -4 -15q-41 -59 -92 -81.5t-99 -22.5q-21 0 -36 3l-235 12q-3 -2 -11 -2t-14 3l-69 4q-11 1 -19 9.5t-8 20.5q1 11 10 19t20 7l75 -4q35 28 55 66t27 67.5t7 37.5v2q0 1 3.5 26.5t3.5 75.5q0 26 -1 40q-4 68 28.5 135t84.5 98q39 23 87 23q25 0 46.5 -5
t27.5 -8q17 -8 17 -26q0 -12 -8.5 -20.5t-20.5 -8.5q-3 0 -9 2q-2 2 -18.5 6t-35.5 4q-32 0 -57 -15q-39 -23 -64 -76t-21 -105q1 -13 1 -37q0 -53 -8 -117q-6 -37 -19.5 -80.5t-50.5 -88.5l181 -9q3 0 5 -1q1 0 7.5 -1t18.5 -1q35 0 74 17t70 62q10 13 24 13q7 0 15 -5
q12 -9 12 -24z" />
            <glyph glyph-name="M" unicode="M" horiz-adv-x="993"
                   d="M936.5 41.5q-7.5 -9.5 -18.5 -10.5l-107 -12h-3q-10 0 -20 7q-9 9 -9 22l18 443l-234 -371q-8 -13 -23 -13q-10 0 -17 5.5t-10 13.5l-132 354l-33 -291v-2q0 -1 -3.5 -16t-16.5 -41.5t-30 -46.5l41 -2q12 0 20 -8.5t7 -20.5q0 -11 -8.5 -19t-19.5 -8h-1l-112 4l-8 -1
q-4 0 -10 2l-31 1q-11 1 -19 9.5t-8 19.5q1 12 9.5 20t19.5 7l36 -1q38 18 56 52t23 58l42 376q-19 0 -36 -3q-74 -8 -126 -44.5t-64 -88.5q-2 -7 -2 -21q0 -32 19 -51q15 -15 35 -15q7 0 11 1q24 4 32 18q2 3 2 10q0 6 -2 14l-3 6l-2 -1q-6 -5 -17 -5q-15 0 -23 11
q-5 8 -5 17q0 14 12 23q16 11 37 11q10 0 16 -2q27 -9 38 -41q6 -16 6 -31q0 -19 -10 -39q-7 -14 -24 -27t-45 -19q-12 -3 -23 -3q-20 0 -40 8.5t-35 23.5q-36 36 -36 91q0 11 4 33q17 71 82 119t157 58q21 3 73 5q9 0 16 -4.5t10 -11.5q2 -4 2 -6l152 -409l259 411
q8 13 24 13q12 0 20.5 -8.5t7.5 -20.5l-20 -515l75 8q11 2 20.5 -5.5t10.5 -19.5q1 -11 -6.5 -20.5z" />
            <glyph glyph-name="N" unicode="N" horiz-adv-x="928"
                   d="M942 714.5q7 -8.5 6 -20.5q-1 -11 -9.5 -19t-20.5 -7q-9 1 -25 1q-80 0 -119 -42t-57 -106q-8 -31 -34 -187.5t-44 -280.5q-1 -10 -8 -16t-17 -8h-3q-8 0 -15.5 5t-10.5 13q-1 1 -17.5 39.5t-53.5 99t-75 99.5q-49 52 -85 120l-29 -260v-3q-9 -26 -16.5 -45t-28.5 -45
l34 -1q12 0 20 -8.5t7 -20.5q0 -11 -8.5 -19t-19.5 -8h-1l-145 5q-11 1 -19 9t-8 18q0 13 9 21.5t20 7.5l31 -1q32 18 48.5 48.5t20.5 49.5l38 336l-29 -3q-66 -8 -112.5 -40t-56.5 -78q-2 -7 -2 -19q0 -26 16 -44q13 -13 30 -13q13 0 23 5t14 12q2 6 2 9q0 4 -2 10l-2 3
q-8 -5 -16 -5q-14 0 -22 12q-6 8 -6 16q0 16 12 23q17 11 34 11q11 0 16 -2q26 -9 37 -40q5 -15 5 -28q0 -19 -9 -36q-18 -33 -64 -44q-14 -2 -21 -2q-41 0 -70 30q-16 16 -25 37.5t-9 45.5q0 11 4 31q15 65 74.5 109t143.5 53q34 4 60 4l6 1q12 0 21 -9l1 -1l1 -2l3 -5
l3 -7q11 -37 37.5 -92.5t75.5 -106.5q64 -66 117 -171q54 342 66 383q53 190 231 190q19 0 29 -1q12 -2 19 -10.5z" />
            <glyph glyph-name="O" unicode="O" horiz-adv-x="668"
                   d="M404.5 8.5q49.5 20.5 89.5 60.5q60 57 92 142.5t32 188.5q0 159 -86 236q-37 32 -79 44t-75 12q-8 0 -11 -0.5t-4 -0.5h-1q-33 -3 -90 -24.5t-119.5 -86t-89.5 -181.5q-13 -53 -13 -108q0 -59 15.5 -111t45.5 -93q31 -43 75 -68t94 -30q8 -1 22 -1q53 0 102.5 20.5z
M394 634.5q22 -1.5 50 -11t52 -30.5q65 -59 65 -191q0 -93 -27 -168t-78 -125q-34 -32 -73.5 -48.5t-81.5 -16.5t-80 20t-64 56q-51 69 -51 172q0 44 11 94q23 100 75.5 155t99.5 73t76 21q4 1 26 -0.5z" />
            <glyph glyph-name="P" unicode="P" horiz-adv-x="757"
                   d="M707 530q0 -29 -9 -62q-28 -99 -111 -141t-176 -42h-18l-12 -101v-3q-5 -20 -19.5 -54t-45.5 -68l43 -1q12 -1 20 -9.5t7 -20.5q0 -11 -8.5 -19t-19.5 -8h-1l-183 7q-12 1 -20 9.5t-7 19.5q0 12 9 20t20 7l55 -2q31 17 51.5 44t30.5 51t12 35l49 432l-45 -3
q-86 -10 -146 -52t-74 -104q-3 -13 -3 -26q0 -36 23 -59q19 -19 43 -19q5 0 13 2q30 6 39 23q4 5 4 14q0 4 -3 16q-3 8 -6 10q-4 0 -7 -3q-8 -5 -16 -5q-14 0 -23 12q-5 8 -5 16q0 14 12 23q3 3 15 8.5t25 5.5q7 0 16 -3q28 -9 42 -45q6 -18 6 -35q0 -21 -11 -41
q-20 -38 -75 -51q-12 -3 -26 -3q-23 0 -44.5 9.5t-38.5 26.5q-19 18 -29 44t-10 55q0 21 4 38q18 79 91 133t177 66l56 4l6 1q3 0 34.5 2.5t73.5 2.5q64 0 97 -9q69 -19 99 -72q19 -32 19 -76zM651 529q0 28 -12 49q-18 34 -64 45q-25 7 -87 7q-39 0 -57 -1l-32 -287
q49 -2 95 9q120 28 150 133q7 22 7 45z" />
            <glyph glyph-name="Q" unicode="Q" horiz-adv-x="798"
                   d="M848 -1q0 -35 -17 -60q-31 -45 -104 -45q-28 0 -59 7q-104 21 -184.5 82t-131.5 121q-40 -14 -81 -14h-19q-44 4 -82.5 26.5t-66.5 60.5q-53 74 -53 180q0 47 10 93q24 102 79 159t104.5 75.5t79.5 21.5q23 0 39.5 -1t49 -12t61.5 -36q75 -66 75 -206q0 -92 -27.5 -166.5
t-79.5 -124.5q-21 -19 -37 -29q47 -53 117.5 -105t157.5 -70q29 -6 49 -6q43 0 56 21q8 11 8 27t-6 28q-6 10 -17 15.5t-20 4.5q-10 0 -13 -5q-1 -1 -1 -3l4 -3q14 -10 14 -25q0 -12 -7.5 -20t-19.5 -8q-2 0 -10 2q-8 3 -19.5 12.5t-15.5 25.5q-3 6 -3 16q0 15 10 32
q9 15 25 23.5t36 9.5q25 0 47.5 -13t37.5 -34q14 -21 14 -57zM402 201q44 43 67 107t23 144q0 112 -56 162q-40 36 -107 36q-25 -3 -65 -18.5t-84.5 -62.5t-64.5 -132q-9 -40 -9 -80q0 -89 43 -147q23 -31 54 -48t67 -17q73 0 132 56z" />
            <glyph glyph-name="R" unicode="R" horiz-adv-x="913"
                   d="M856 159.5q8 -8.5 7 -20.5q-1 -40 -21 -79t-62 -46q-14 -2 -20 -2q-44 0 -73 27.5t-38 46.5l-134 234h-14h-37q-49 0 -64 -1l-16 -136v-3q-5 -21 -20 -55t-46 -69l44 -1q12 -1 20 -9.5t7 -19.5q0 -12 -8 -19.5t-20 -7.5h-1l-185 6q-11 1 -19 9.5t-8 19.5q1 12 9.5 20
t19.5 7l56 -2q44 25 66 64.5t30 67.5l49 437q-32 -2 -46 -4q-87 -9 -148 -52t-75 -105q-3 -13 -3 -25q0 -36 23 -61q19 -19 46 -19q8 0 12 1q30 8 39 24q4 7 4 15q0 9 -3 15q-3 9 -6 11q-1 0 -3.5 -1t-3.5 -2q-8 -5 -16 -5q-14 0 -23 12q-5 6 -5 17q0 14 11 22q3 3 15 8
t25 5q8 0 17 -3q29 -9 42 -45q6 -18 6 -35q0 -24 -10 -41q-22 -39 -77 -51q-13 -3 -26 -3q-48 0 -83 35q-40 40 -40 100q0 17 5 39q18 80 91.5 134.5t178.5 65.5q36 5 84 6h1v0h148q27 1 58.5 -10t58.5 -40t37 -77q4 -17 4 -41q0 -36 -11.5 -69.5t-33.5 -58.5
q-37 -45 -96 -61l123 -216l7 -11t23.5 -22.5t33.5 -11.5l8 1q19 3 28 28.5t9 43.5q1 12 9.5 20t19.5 7q12 0 20 -8.5zM469 377h38q80 0 121 49q32 37 32 92q0 17 -3 30q-11 53 -42.5 67.5t-54.5 14.5h-1h-124l-29 -254q16 1 63 1z" />
            <glyph glyph-name="S" unicode="S" horiz-adv-x="516"
                   d="M350 36q65 35 80 104q5 21 5 48q0 43 -20 80t-61 72l-1 1q-36 28 -80 70t-58 71q-12 24 -12 53q0 23 10 43.5t30 32.5q35 21 78 21q51 0 103 -29q7 -4 14 -4q8 0 14.5 4t10.5 11q3 6 3 13q0 17 -14 25q-66 37 -131 37q-59 0 -107 -30q-32 -20 -49.5 -53t-17.5 -72
q0 -41 17 -76q19 -40 67 -85.5t87 -75.5q33 -28 47 -54.5t14 -54.5q0 -12 -4 -36q-10 -43 -52 -67q-41 -22 -94 -22q-40 0 -70 11q-24 8 -38.5 26t-14.5 39q0 23 15 39q7 9 19.5 14t23.5 4q12 0 18 -7q1 -1 4 -6.5t2 -9.5q-1 -5 -9 -10q-7 -4 -10.5 -10.5t-3.5 -13.5
q0 -9 4 -14q8 -14 25 -14q7 0 13 3q37 25 37 60q0 24 -17 48q-22 28 -60 31q-24 1 -48 -9t-40 -29q-29 -32 -29 -76q0 -40 24.5 -71.5t65.5 -46.5q37 -14 87 -14q71 0 123 29z" />
            <glyph glyph-name="T" unicode="T" horiz-adv-x="782"
                   d="M782 704q0 -62 -37 -107q-36 -43 -86 -56.5t-78 -13.5h-197l-42 -374l-1 -3q0 -1 -4 -15.5t-17.5 -40.5t-30.5 -47l68 -2q12 0 20 -8.5t8 -20.5q-1 -11 -9 -19t-19 -8h-1l-173 6q-12 0 -20 8.5t-7 20.5q0 11 8.5 19t19.5 8h1l18 -1q2 2 3 2q56 30 80 109l41 365l-34 -3
q-72 -8 -122 -43.5t-62 -86.5q-2 -7 -2 -21q0 -30 18 -48q15 -15 35 -15q6 0 9 1q24 6 32 19q2 4 2 7q0 7 -3 14q0 1 -1 2l-1 1q-2 2 -7 -1l-12 -2q-13 0 -21.5 7.5t-8.5 18.5q0 16 18 27q1 0 9.5 3.5t21.5 3.5q12 0 21 -4q24 -11 34 -36q6 -15 6 -31q0 -19 -9 -37
q-17 -35 -68 -46q-12 -3 -24 -3q-42 0 -73 31q-35 35 -35 89q0 11 4 33q16 68 79.5 115t153.5 58q22 2 71 4h5h218q35 1 68 13.5t53 36.5q23 27 23 72q0 17 -3 36q-2 13 6 23t22 10q10 0 18 -6.5t9 -16.5q5 -28 5 -47z" />
            <glyph glyph-name="U" unicode="U" horiz-adv-x="872"
                   d="M817.5 86.5q-4.5 -7.5 -11.5 -11.5l-111 -50q-6 -3 -12 -3q-8 0 -16 6q-14 10 -12 26l8 66q-52 -59 -108.5 -81t-103.5 -22q-26 0 -32 3h-1q-59 14 -84.5 60t-25.5 96q0 14 1 20l46 407l-41 -3q-80 -9 -136.5 -48.5t-69.5 -96.5q-3 -12 -3 -23q0 -34 22 -56
q17 -17 40 -17q7 0 11 1q28 6 36 21q3 6 3 13q0 8 -3 14q-1 5 -4 8q-3 0 -5 -2q-9 -4 -20 -4q-12 0 -19.5 7t-7.5 17q0 14 15 26q3 3 14 8t24 5q7 0 16 -3q28 -9 40 -43q6 -16 6 -33q0 -23 -10 -40q-19 -37 -72 -49q-12 -3 -24 -3q-22 0 -43 9t-37 25q-37 39 -37 95
q0 20 4 36q17 75 86 126.5t168 62.5q42 4 78 5q13 0 22 -9q8 -10 7 -22l-50 -440q0 -25 1.5 -41t16 -41t48.5 -33q1 0 7 -1t14 -1q52 0 113.5 35t111.5 134l45 394q1 11 9 18t19 7q13 0 21.5 -9.5t6.5 -21.5l-61 -533l66 30q6 2 11 2q11 0 19.5 -7.5t8.5 -19.5
q0 -8 -4.5 -15.5z" />
            <glyph glyph-name="V" unicode="V" horiz-adv-x="820"
                   d="M475 3l264 451q31 54 31 104q0 53 -34 95q-9 10 -22 10q-10 0 -18 -6q-10 -9 -10 -22q0 -9 6 -18q21 -25 21 -60q0 -17 -4.5 -32.5t-10 -26t-7.5 -13.5l-1 -2l-224 -385q-30 167 -70.5 321.5t-81.5 199.5q-21 22 -48.5 34.5t-56.5 12.5q-35 0 -67 -16t-54 -45
q-38 -50 -38 -107q0 -34 13 -63.5t36 -47.5q31 -25 71 -25q19 0 37 6q27 10 42.5 31.5t15.5 47.5q0 23 -12 41q-7 11 -17 18t-18.5 9.5t-11.5 3.5t-9 1q-13 0 -21 -8t-8 -19q0 -10 6.5 -17.5t20.5 -11.5q14 -3 14 -17l-1 -8q-3 -11 -20 -18q-9 -3 -18 -3q-20 0 -36 13
q-12 9 -20 27.5t-8 39.5q0 37 26 72q15 19 34.5 29.5t40.5 10.5q18 0 35 -7.5t30 -21.5q35 -37 79 -215.5t72 -353.5q2 -8 8 -14.5t15 -8.5h5q16 0 24 14z" />
            <glyph glyph-name="W" unicode="W" horiz-adv-x="981"
                   d="M330.5 12q6.5 4 10.5 11l244 472l55 -462q2 -11 9.5 -18t18.5 -7q18 0 26 16l217 456q20 32 20 75q0 54 -38 96q-9 9 -21 9q-11 0 -19 -8q-9 -7 -9 -21q0 -11 7 -18q24 -25 24 -59q0 -15 -4.5 -28t-7.5 -18l-2 -3l-176 -369l-55 457q-2 9 -8 16t-15 8h-5q-8 0 -15 -4
t-10 -11l-225 -434q4 78 4 131q0 268 -60 328q-43 43 -98 43q-66 0 -111 -57q-37 -48 -37 -104q0 -33 13 -61.5t36 -45.5q35 -24 68 -24q16 0 32 6q24 9 38 30t14 47q0 24 -12 40q-10 15 -20 20t-26 10q-13 2 -23 -6t-10 -22q0 -10 6.5 -18t16.5 -9q7 -2 10 -7q3 -6 1 -15
q-3 -13 -16 -18q-6 -2 -10 -2q-16 0 -36 14q-12 8 -19 24.5t-7 34.5q0 39 26 71q27 35 61 36q33 3 63 -27q43 -42 43 -288q0 -124 -11 -260q-1 -10 4.5 -18.5t15.5 -11.5q2 -1 8 -1q8 0 14.5 4z" />
            <glyph glyph-name="X" unicode="X" horiz-adv-x="773"
                   d="M723 144q0 -56 -36 -89q-21 -21 -48.5 -30.5t-54.5 -9.5h-2q-40 1 -72 24.5t-48 55.5l-43 105l-31 74l-11 -18q-48 -78 -54 -84v1l-7 -11q-49 -65 -94.5 -107.5t-91.5 -49.5q-22 -3 -39 -3q-23 0 -41 7q-15 9 -15 24q0 13 11 21t29 6h-2q6 -2 17 -2q12 0 33 3
q54 8 147 135q6 8 13 15l61 98l18 29q-92 224 -108 252q-20 36 -40 36q-3 0 -12 -3q-13 -7 -27.5 -26.5t-23.5 -37.5q-4 -7 -10.5 -11t-13.5 -4q-13 0 -21 8.5t-8 19.5q0 7 3 13q39 69 75 88q20 10 38 10q51 0 89 -66q18 -31 96 -220q145 232 172 257q36 35 93 35
q14 0 21 -1.5t8 -1.5q12 -2 18 -12t4 -22q-3 -11 -13 -17t-21 -4l-18 1q-34 0 -53 -19q-23 -23 -185 -280q34 -82 46 -112l42 -102q8 -17 28 -32.5t45 -15.5q16 0 33.5 6.5t28.5 17.5q19 18 19 49q0 37 -20 52q-9 8 -24 8q-7 0 -10 -1q-5 -2 -8.5 -6t-4.5 -9l-1 -4
q0 -5 7 -14q8 -7 8 -20q0 -12 -7 -19q-9 -9 -20 -9q-12 0 -20 8q-24 23 -24 54q0 32 23.5 54t56.5 22q32 0 59 -19q41 -32 41 -97zM322 171l1 1z" />
            <glyph glyph-name="Y" unicode="Y" horiz-adv-x="719"
                   d="M678 636q0 -11 -7.5 -19t-19.5 -8q-9 0 -14 2h1q-1 0 -5.5 2t-13.5 2q-22 0 -49 -17q-53 -36 -141 -198q-33 -60 -55 -106.5t-25 -52.5l-3 -30q-2 -23 -13 -66.5t-35 -78.5l65 -3q11 0 19 -8.5t8 -20.5q-1 -11 -9 -19t-19 -8h-1l-222 9q-12 0 -20 8.5t-7 20.5
q0 11 8.5 19t20.5 8l81 -3q29 15 46 62t22 86v1q8 61 8 112q0 50 -9 75q-24 63 -47.5 114t-35.5 73q-20 36 -40 36q-3 0 -12 -3q-12 -6 -27 -25.5t-23 -37.5q-10 -16 -26 -16q-12 0 -20 8t-8 19q0 6 4 14q6 15 27.5 45t46.5 43q23 10 39 10q22 0 44.5 -15t42.5 -50
q12 -21 37 -75t50 -120q8 -18 11 -50q10 22 27 52q97 178 161 218q41 26 80 26q27 0 49 -13q9 -9 9 -22z" />
            <glyph glyph-name="Z" unicode="Z" horiz-adv-x="639"
                   d="M510.5 28.5q45.5 23.5 63.5 60.5q15 32 15 69q0 47 -23 84q-17 26 -44.5 40t-60.5 14q-68 0 -97 -48q-15 -25 -15 -52q0 -20 9 -40t27 -31.5t40 -11.5q17 0 32 8t23 22q4 5 4 14q0 7 -3.5 13.5t-10.5 10.5t-14 4q-17 0 -25 -14q0 -2 -7 -2q-11 0 -15 12q-3 5 -3 16
q0 14 6 22q14 21 48 21q41 0 59 -29q13 -20 13 -53q0 -24 -9 -44q-11 -23 -43 -37.5t-77 -14.5q-42 0 -92 15q-57 16 -109 16q-20 0 -52 -4l421 544q5 6 5 17q0 12 -7 20q-7 9 -20 9q-8 0 -16 -5q-27 -17 -65 -17q-29 0 -58.5 7.5t-65.5 19.5q-37 12 -68 12q-72 0 -132 -69
q-38 -43 -38 -95q0 -34 15 -64q9 -15 25 -15q7 0 13 3q15 9 15 25q0 7 -3 13q0 1 -4 10.5t-4 27.5q0 32 23 58t45 37.5t45 11.5q19 0 51 -9q44 -14 78.5 -22t69.5 -7l-419 -542q-6 -7 -6 -18q0 -9 6 -17q7 -10 21 -10q8 0 12 2q1 0 28 10t86 10q49 0 91 -13q60 -18 109 -18
q62 0 107.5 23.5z" />


            <glyph glyph-name="a" unicode="a" horiz-adv-x="498"
                   d="M337 12q46 1 84 62q10 17 16.5 32.5t8.5 20.5q2 6 2 9q0 12 -8 20t-20 8q-9 0 -16.5 -5t-10.5 -13q-9 -27 -26.5 -52t-31.5 -26h-1q-2 3 -2 17q0 20 4 36l1 1l22 107v1l28 134q2 11 -4 20.5t-16 12.5q-1 0 -15 3t-41 3q-18 0 -41 -3q-110 -20 -174 -122q-46 -72 -46 -137
q0 -32 13 -63q12 -28 32.5 -43t44.5 -15q61 0 136 86q-1 -6 -1 -18q0 -32 16 -56q17 -20 44 -20h2zM326 347l-21 -102q-38 -66 -88.5 -120t-81.5 -49q-4 1 -10 7t-11 17q-8 21 -8 41q0 50 37 107q36 56 81 77.5t87 21.5h15z" />


            <glyph glyph-name="b" unicode="b" horiz-adv-x="423"
                   d="M175 11q42 11 84 41q52 38 81 100t29 119q0 38 -13.5 65.5t-39.5 40.5q-18 8 -35 8q-62 0 -144 -90q30 208 53 254q30 60 77.5 79t76.5 19h1q11 0 19.5 8t8.5 20q0 11 -8 19.5t-19 8.5q-12 2 -49.5 -5.5t-82.5 -36.5t-75 -87q-20 -40 -39 -152.5t-32 -226t-18 -163.5
q-1 -11 6 -20t18 -11q1 0 5.5 -0.5t18.5 -0.5q35 0 77 11zM143.5 213q18.5 27 48.5 57q27 28 50.5 43.5t38.5 15.5q16 0 23 -15t8 -32q4 -45 -20 -99.5t-66 -84.5q-53 -39 -117 -41l14 127q2 2 20.5 29z" />
            <glyph glyph-name="c" unicode="c" horiz-adv-x="366"
                   d="M221 35q29 14 50 41.5t28 59.5q2 13 -6 23.5t-21 10.5q-10 0 -18 -6.5t-10 -16.5q-4 -19 -17 -36t-31 -26q-16 -7 -29 -7q-15 0 -29 7q-9 5 -20.5 25.5t-11.5 52.5q0 40 22 88q29 63 77 79t82 16q12 -1 20.5 7.5t8.5 20.5q0 11 -7.5 19t-18.5 9q-14 2 -53.5 -4
t-85.5 -34.5t-74 -89.5q-27 -60 -27 -112q0 -47 19.5 -81t43.5 -46q25 -13 54 -13q28 0 54 13z" />
            <glyph glyph-name="d" unicode="d" horiz-adv-x="536"
                   d="M581 682q7 -9 5 -21q-2 -11 -11 -18t-20 -6q-1 0 -4 0.5t-12 0.5q-64 0 -96 -39q-31 -37 -55.5 -136t-30.5 -195q-6 -94 -16 -195q24 22 43 58q8 14 24 14q7 0 14 -3q7 -4 11 -10.5t4 -14.5t-4 -13q-33 -60 -64.5 -81.5t-55.5 -21.5q-8 0 -10 1q-11 2 -17 11t-5 19
q0 2 2 18.5t6 62.5q-34 -43 -69.5 -72.5t-67.5 -37.5q-16 -2 -21 -2q-23 0 -44 15q-18 13 -27.5 38.5t-9.5 57.5q0 53 24.5 113t76.5 103q56 48 113 48q24 0 47 -9q13 85 35 158t53 110q29 34 67 47t73 13q10 0 16 -1t7 -1q12 -2 19 -11zM218.5 116.5q48.5 51.5 80.5 116.5
q0 14 2 38l3 37q-17 12 -40 12q-37 0 -77 -35q-39 -33 -60 -81t-21 -91q0 -20 5 -34t11 -19l3.5 -2.5t13.5 0.5q31 7 79.5 58.5z" />
            <glyph glyph-name="e" unicode="e" horiz-adv-x="366"
                   d="M252.5 189.5q-34.5 -28.5 -82.5 -41.5q-31 -9 -64 -9q1 -24 8.5 -40.5t16 -25.5t10.5 -9q11 -7 25 -7q11 0 25 6q19 8 34 26t19 38q2 10 10 16.5t18 6.5q14 0 21.5 -10.5t5.5 -23.5q-7 -34 -30 -62.5t-56 -42.5q-23 -10 -47 -10q-29 0 -55 15q-22 13 -41.5 47t-19.5 81
q0 50 27 110q28 61 68.5 89t67.5 33t49 5q12 -2 24.5 -9t20.5 -21q9 -15 9 -37q0 -24 -12 -53q-17 -43 -51.5 -71.5zM157 203q71 18 95 79q6 15 7.5 25.5t-0.5 14.5q-1 1 -2 1.5t-1 1.5h-3q-26 0 -62.5 -19t-62.5 -75q-7 -15 -13 -35q21 0 42 7z" />


            <glyph glyph-name="f" unicode="f" horiz-adv-x="421"
                   d="M481 715q0 -12 -8.5 -20t-20.5 -8q-4 0 -10 2q-1 0 -8 2t-22 2q-47 0 -95 -33q-28 -20 -46.5 -85.5t-27.5 -149.5h120q12 0 20 -8.5t8 -19.5q0 -12 -8 -20.5t-20 -8.5h-125l-1 -30v-2l-44 -391q-3 -36 -23.5 -88t-79.5 -88q-47 -29 -106 -29q-23 0 -42.5 4t-23.5 6
q-8 3 -13 10.5t-5 16.5q0 12 8 19.5t20 7.5q6 0 9 -1q21 -7 48 -7q42 0 76 21q32 20 48.5 49t22 52t5.5 31v1l44 391l1 27h-36q-11 0 -19.5 8.5t-8.5 20.5q0 11 8.5 19.5t19.5 8.5h40q3 30 9 67q27 170 89 214q61 43 127 43q25 0 38.5 -4t14.5 -4q17 -8 17 -26z" />
            <glyph glyph-name="g" unicode="g" horiz-adv-x="461"
                   d="M280 -237q33 25 51 59t-97 -423.5t129 519.5l35 345v1l13 131v8q-4 16 -19 25q-11 7 -31 7q-28 0 -76 -17q-74 -26 -124.5 -92t-64.5 -154q-3 -18 -3 -32q0 -52 32 -74q19 -13 45 -13q34 0 73 21q42 22 87 81l-23 -231q0 -5 -5.5 -26t-19 -46.5t-37.5 -44.5
q-38 -31 -98 -31q-10 0 -30 2q-41 6 -54 34q-7 15 -7 37q0 23 7 47t16 38q19 29 51 55q11 9 11 23q0 10 -6 17q-8 11 -22 11q-9 0 -17 -6q-1 -1 -21.5 -18t-42.5 -52q-14 -20 -23 -51t-9 -63q0 -36 12 -61q27 -58 97 -66q21 -3 40 -3q79 0 131 43zM342 275
q-23 -42 -58 -88.5t-67 -62.5q-27 -15 -47 -15q-9 0 -12 3q-8 6 -8 28q0 5 2 23q9 65 47.5 121.5t104.5 80.5q29 11 49 13z" />

            <glyph glyph-name="h" unicode="h" horiz-adv-x="476"
                   d="M436 117q0 -7 -2 -11q-13 -29 -35.5 -62.5t-50.5 -42.5q-9 -3 -17 -3q-14 0 -27 8q-15 10 -21.5 27t-6.5 26q-1 3 0 6l25 225v3q2 12 2 21q0 16 -4 20q0 1 -5 1q-36 -1 -88.5 -66.5t-92.5 -143.5q-4 -62 -6 -107q-1 -12 -9 -20t-19 -8h-1q-12 1 -20 9.5t-8 19.5
q6 153 34 349t102 265q35 32 71 48t62 20t32 3q12 0 20 -8.5t8 -19.5q-1 -12 -9 -20t-20 -8q-18 0 -53 -10.5t-73 -45.5q-35 -33 -59 -124t-39 -211l4 6q45 65 85.5 96.5t78.5 31.5q31 0 49 -22q16 -20 16 -55q0 -16 -3 -31l-24 -220q0 -3 2 -7q10 6 23.5 27t24.5 45
q4 8 11 12.5t16 4.5q3 0 11 -2q16 -8 16 -26z" />
            <glyph glyph-name="i" unicode="i" horiz-adv-x="331"
                   d="M184 455l75 54q11 8 11 23q0 10 -5 16q-9 12 -23 12q-8 0 -16 -5l-75 -54q-12 -9 -12 -23q0 -9 6 -17q8 -11 22 -11q11 0 17 5zM191 -1q32 17 56 47.5t30 45.5q4 7 4 14q0 16 -15 24q-6 3 -13 3q-17 0 -25 -14t-23.5 -34t-32.5 -32v1v2l34 294q1 9 -4 17t-13 12
q-1 0 -5.5 2t-10.5 2q-45 0 -118 -105q-5 -6 -5 -17q0 -15 11 -23q7 -4 16 -4q15 0 24 11q14 22 42 54l-27 -236q-1 -4 -1 -16q0 -34 20 -49q12 -8 25 -8t31 9z" />


            <glyph glyph-name="j" unicode="j" horiz-adv-x="431"
                   d="M295 444l75 54q11 8 11 22q0 11 -5 17q-8 12 -23 12q-8 0 -16 -6l-75 -54q-12 -9 -12 -23q0 -8 5 -16q9 -12 23 -12q10 0 17 6zM59 -311q47 9 85 36q60 42 93 155q10 34 15.5 65t5.5 37l40 368v3q0 10 -7 19q-9 9 -22 9q-50 -1 -134 -112q-6 -7 -6 -17q0 -14 12 -23
q6 -5 16 -5q15 0 23 11q29 38 56 64l-34 -311q-6 -53 -29 -122t-61 -95q-33 -23 -72 -29t-61 -6h-1q-11 0 -19 -8t-9 -19q0 -12 8 -20.5t19 -8.5h4q31 0 78 9z" />
            <glyph glyph-name="k" unicode="k" horiz-adv-x="427"
                   d="M275 624.5q-44 -13.5 -80 -65.5q-34 -44 -61 -244q64 70 121 70q16 0 31 -6q33 -12 43.5 -32t10.5 -38q0 -31 -23 -61.5t-53 -44.5q-4 -2 -7.5 -4t-7.5 -4q-31 -17 -59 -25l60 -91q2 -6 11.5 -14.5t21.5 -8.5q6 0 13 3q5 2 12 11.5t11 18.5q8 16 26 16q12 0 20 -8.5
t8 -19.5q0 -7 -3 -13q-6 -13 -18.5 -29.5t-29.5 -25.5q-17 -10 -39 -10q-25 0 -50 17q-12 8 -20.5 18t-10.5 14l-83 128l-1 2q-6 -59 -8.5 -99t-3.5 -52q-1 -11 -9 -18.5t-19 -7.5h-2q-11 1 -19 9.5t-7 20.5q9 148 31.5 323t67.5 238q34 48 78 70.5t78.5 28t44.5 3.5
q11 0 19 -8t8 -19q0 -13 -8.5 -21.5t-20.5 -7.5q-29 0 -73 -13.5zM189.5 291.5q-37.5 -36.5 -64.5 -78.5q5 4 15 6q29 3 45 8.5t37 16.5l16 9q18 9 32.5 27t13.5 30q0 10 -18 16q-3 2 -11 2q-28 0 -65.5 -36.5z" />
            <glyph glyph-name="l" unicode="l" horiz-adv-x="326"
                   d="M128 3q22 9 46.5 39t41.5 56q4 7 4 15q0 15 -12 24q-7 4 -15 4q-7 0 -13.5 -3.5t-10.5 -9.5q-16 -25 -34.5 -46.5t-27.5 -26.5q0 13 1 19v3q1 18 6 80t13 131q16 125 33.5 187.5t32.5 83.5q37 51 81 65t72 14q12 -1 20.5 7t9.5 20q0 12 -7.5 20.5t-19.5 8.5
q-10 2 -44.5 -3.5t-78.5 -28t-78 -70.5q-45 -62 -66.5 -222t-29.5 -288q-2 -10 -2 -20q0 -38 21 -54q13 -11 30 -11q12 0 27 6z" />
            <glyph glyph-name="m" unicode="m" horiz-adv-x="730"
                   d="M158.5 3.5q7.5 5.5 10.5 13.5q23 67 58.5 152.5t60.5 116.5q28 34 52 44v-4q-10 -65 -27 -266l-2 -22q-1 -12 7.5 -21.5t20.5 -9.5q9 0 16.5 5.5t10.5 13.5q1 1 19 50t49 116.5t53 96.5q16 22 33.5 34.5t27.5 14.5l-1 -10q-6 -58 -31 -214l-4 -24l-1 -2q-1 -17 3.5 -39
t21.5 -35q10 -10 29 -10q39 0 69 40t44 73q2 6 2 11q0 11 -7.5 19.5t-20.5 8.5q-18 0 -26 -17q-10 -23 -26.5 -47t-30.5 -30q-2 10 -2 20q6 36 19 118.5t17 121.5q1 5 1 13q0 25 -10.5 38t-22.5 18q-14 4 -21 4q-27 0 -56.5 -21t-51.5 -51q-26 -36 -58 -105q7 73 11 99
q1 6 1 16q0 23 -9 35t-19 17q-9 4 -20 4q-25 0 -53 -19.5t-51 -48.5q-17 -21 -41 -69l10 75q3 43 -20 61q-13 9 -30 9q-13 0 -25 -4q-27 -9 -51 -39t-33 -49q-4 -5 -4 -13q0 -7 4 -14t11 -11q6 -3 13 -3q17 0 25 14q10 19 26 38.5t27 23.5h1v-9q-1 -11 -34 -248
q-6 -36 -8 -53q-2 -11 4.5 -20t16.5 -11l7 -1q8 0 15.5 5.5z" />

            <glyph glyph-name="n" unicode="n" horiz-adv-x="534"
                   d="M160.5 -6.5q7.5 5.5 10.5 13.5q25 70 61 153.5t61 114.5q18 21 35 33t28 14q0 -4 -1 -6q-5 -32 -12 -103t-10 -95q-4 -39 -4 -40q-2 -8 -2 -19q0 -28 14 -45t37 -17q44 0 80 57q10 15 16.5 29.5t7.5 19.5q2 6 2 10q0 9 -5 16t-13 10q-8 2 -11 2q-8 0 -15 -5t-10 -13
q-9 -22 -22 -42t-24 -26q0 10 1 14v2q3 29 11.5 113t14.5 123q1 6 1 15q0 23 -9 35t-20 17q-12 5 -23 5q-27 0 -56.5 -19.5t-53.5 -48.5q-17 -19 -45 -74l11 80q3 42 -20 60q-14 10 -31 10q-12 0 -24 -4q-28 -9 -50.5 -36t-36.5 -51q-4 -7 -4 -14q0 -17 14 -25q6 -3 13 -3
q17 0 26 14q10 19 26.5 38.5t28.5 23.5h2v-9q-3 -30 -23 -165l-20 -135q-2 -11 4 -20t17 -12l6 -1q9 0 16.5 5.5z" />


            <glyph glyph-name="o" unicode="o" horiz-adv-x="395"
                   d="M215 10q35 16 65 54t47 89q18 54 18 101q0 43 -16 77q-20 39 -60 51v1q-1 0 -8.5 2t-22.5 2q-32 0 -68.5 -16.5t-68.5 -60.5q-24 -33 -37.5 -78.5t-13.5 -89.5q0 -32 7 -56q15 -57 61 -77q23 -10 48 -10q24 0 49 11zM248 329.5q3 -0.5 4 -0.5q18 -6 27 -24q9 -19 9 -49
q0 -40 -15 -85q-13 -39 -35 -69t-46 -41q-12 -6 -26 -6q-12 0 -26 6q-20 9 -29 39q-5 20 -5 40q0 36 11 74t30 63q22 31 45.5 42t44.5 11q8 0 11 -0.5z" />


            <glyph glyph-name="p" unicode="p" horiz-adv-x="501"
                   d="M431.5 178.5q-19.5 -72.5 -67.5 -121.5q-51 -52 -112 -52q-26 0 -55 11l-9 -79q0 -10 -8 -43.5t-28 -74.5t-55 -70q-33 -26 -70.5 -35.5t-68.5 -9.5h-13q-12 2 -19 10.5t-6 20.5q1 11 9.5 18.5t20.5 6.5q71 0 111 33q27 22 42.5 55t22 61t6.5 34l24 220v5l15 134l-49 -39
q-9 -6 -18 -6q-13 0 -22 10q-6 8 -6 18q0 14 10 21l102 83q8 6 18 6q7 0 13 -3q8 -5 12 -12.5t3 -15.5l-10 -93q56 74 98 102q34 23 63 23q15 0 27 -6q15 -7 27 -26.5t12 -54.5q0 -58 -19.5 -130.5zM380.5 206.5q16.5 68.5 13.5 115.5q-1 15 -6 17q-4 2 -13 -1t-21 -11
q-37 -26 -77 -79t-66 -95l-8 -77q21 -14 48 -14q39 0 72 34q41 42 57.5 110.5z" />
            <glyph glyph-name="q" unicode="q" horiz-adv-x="432"
                   d="M382 -165q0 -13 -10 -21l-96 -87q-7 -7 -18 -7q-7 0 -13 3q-8 4 -12.5 12t-2.5 16l41 369q-46 -59 -80 -80q-37 -24 -70 -24q-21 0 -37 10q-13 8 -23.5 26t-10.5 49q0 25 10.5 69.5t29.5 87.5q42 91 100 118q37 17 75 17q19 0 41 -6q3 4 9 7t12 3q13 0 21.5 -9.5
t6.5 -21.5l-61 -547l41 36q8 8 18 8q13 0 21 -10q8 -8 8 -18zM285 242l10 90q-17 5 -30 5q-25 0 -52 -12q-39 -19 -69 -85t-37 -128l-1 -11q0 -11 2.5 -18t5.5 -9q5 -3 18 0t29 14q30 18 65 65t56 85z" />
            <glyph glyph-name="r" unicode="r" horiz-adv-x="407"
                   d="M399.5 339.5q-8.5 -8.5 -19.5 -8.5q-28 -2 -55 -21q-21 -15 -60.5 -64.5t-67.5 -91.5l-13 -134q-1 -11 -9 -18.5t-19 -7.5h-2q-12 1 -19.5 10.5t-6.5 20.5l28 290q1 1 1 3q2 12 2 19q-11 -8 -27 -27.5t-29 -41.5q-8 -14 -25 -14q-6 0 -14 3q-14 8 -14 25q0 7 4 14
q19 33 49.5 66.5t64.5 33.5q23 0 35 -17q12 -14 12 -42q0 -12 -3 -30l-4 -43q52 69 85 92q27 18 50.5 24.5t35.5 6.5q11 0 19.5 -8t8.5 -19q1 -12 -7.5 -20.5z" />
            <glyph glyph-name="s" unicode="s" horiz-adv-x="350"
                   d="M180 -8q50 9 78 49q17 26 17 61q0 17 -2 25q-7 29 -22.5 49.5t-43.5 46.5l-28 27q-15 16 -15 37q0 7 2 13q3 11 10.5 20t16.5 11q9 3 20 3q13 0 26.5 -3.5t21.5 -7.5q4 -2 11 -2q18 0 26 16q2 4 2 11q0 8 -4.5 15.5t-11.5 11.5q-37 15 -71 15q-21 0 -36 -5
q-29 -8 -49 -36.5t-20 -62.5q0 -42 30 -74l30 -30q23 -21 34.5 -35t15.5 -32q1 -5 1 -14q0 -17 -8 -29q-8 -13 -22.5 -19.5t-31.5 -6.5q-18 0 -37 5t-30 10q-6 3 -12 3q-8 0 -14.5 -4.5t-10.5 -11.5q-3 -6 -3 -12q0 -8 4.5 -15t12.5 -11q50 -20 88 -20q17 0 25 2z" />
            <glyph glyph-name="t" unicode="t" horiz-adv-x="389"
                   d="M330.5 379q8.5 -8 8.5 -20t-8.5 -20t-19.5 -8h-120l-27 -259q0 -4 1.5 -8.5t2.5 -5.5q1 0 2 -0.5t3 -0.5l13 2q13 5 28 19t25 27q9 12 23 12q8 0 16 -5q12 -9 12 -23q0 -8 -5 -16q-9 -14 -32 -36t-50 -31q-14 -5 -31 -5q-23 0 -38 12q-17 13 -22.5 33t-3.5 28v2l26 255
h-56q-11 0 -19.5 8t-8.5 20t8.5 20t19.5 8h62l6 61q1 12 10.5 19.5t20.5 5.5q12 -1 19.5 -10t5.5 -21l-6 -55h115q11 0 19.5 -8z" />
            <glyph glyph-name="u" unicode="u" horiz-adv-x="525"
                   d="M501 125.5q4 -6.5 4 -13.5t-3 -13q-11 -22 -30.5 -50.5t-43.5 -41.5q-16 -9 -32 -9q-17 0 -31 10q-24 17 -24 56q0 17 2 26l2 10q-49 -57 -94 -83q-35 -19 -57 -19q-17 0 -31 9q-20 13 -24 32.5t-4 39.5l27 227v4q1 2 1 5q-28 -20 -63 -62q-7 -12 -22 -12q-9 0 -17 6
q-11 9 -11 23q0 10 6 17q22 26 45 50t53 37q14 7 25 7q15 0 26 -9q17 -14 17 -43q0 -11 -5 -31l-26 -225q0 -13 3 -18q9 0 28 11q42 25 80.5 71t61.5 82q3 20 6 41.5t6 43.5q4 23 6 39.5t4 22.5q1 11 9 17.5t19 6.5q13 0 21 -10t6 -22q-6 -39 -19 -125.5t-24 -152.5
q-1 -6 -1 -15q0 -8 1 -10l2 1q12 6 26.5 26.5t25.5 41.5q8 15 25 15q7 0 13 -3q7 -4 11 -10.5z" />


            <glyph glyph-name="v" unicode="v" horiz-adv-x="493"
                   d="M273 30l144 215q26 32 26 69q0 36 -27 60q-7 7 -19 7q-14 0 -21 -10q-8 -8 -8 -18q0 -13 10 -21q9 -8 9 -20q0 -13 -14 -32l-2 -2l-107 -160q-30 145 -50 190q-10 24 -25.5 40.5t-32.5 23.5q-9 3 -19 3q-11 0 -23 -5q-23 -13 -58 -56q-6 -7 -6 -17q0 -14 11 -22
q8 -6 18 -6q14 0 21 10q26 32 38 39q14 -7 25 -33q13 -30 31.5 -109.5t27.5 -134.5q1 -9 7.5 -15t14.5 -8h6q16 0 23 12z" />
            <glyph glyph-name="w" unicode="w" horiz-adv-x="594"
                   d="M201 28l125 239q23 -144 23 -201l-1 -25q0 -9 5 -16t14 -10q3 -1 9 -1q7 0 13.5 3.5t10.5 10.5l134 244q10 20 10 41q0 32 -23 58q-7 10 -21 10q-11 0 -18 -7q-10 -9 -10 -22q0 -11 7 -18q9 -9 9 -21q0 -7 -4 -15l-84 -153q-8 70 -33 213q-2 9 -8.5 15.5t-15.5 7.5
t-16.5 -3t-12.5 -12l-114 -219q-6 61 -17.5 117t-22.5 79q-19 36 -48 38q-19 3 -34 -7t-22 -19q-6 -7 -6 -18q0 -13 10 -22q8 -6 18 -6q12 0 21 10q4 4 6 5q3 -3 5 -7q14 -27 27 -116t13 -138q0 -13 -1 -17q-2 -10 3 -19t15 -12q6 -2 9 -2q17 0 25 15z" />
            <glyph glyph-name="x" unicode="x" horiz-adv-x="519"
                   d="M469 70q0 -9 -4 -14q-14 -18 -25 -30t-31 -20q-11 -5 -27 -5q-15 0 -29 6q-23 10 -35 27.5t-21 35.5l-27 66l-41 -62l-0.5 -0.5l-0.5 -0.5q-15 -20 -47.5 -46t-75.5 -26q-19 0 -37 7q-8 3 -13 10t-5 16q0 4 2 10q3 9 10 14t16 5q4 0 10 -2q9 -3 17 -3q24 0 45 17t32 31
q20 31 62 93q-25 59 -34 75l-1 2q-19 29 -29 39t-13 10q-4 -1 -8 -8.5t-5 -13.5q-2 -11 -12 -17.5t-21 -4.5q-11 1 -18 11t-5 21q4 24 21.5 46t46.5 22t50 -21.5t41 -53.5l1 -3q5 -10 24 -50q56 78 80 99q37 33 68 33q19 0 30 -11q9 -9 9 -21q0 -11 -8 -19q-9 -9 -21 -9
q-6 0 -12 3q-8 0 -29 -18q-21 -19 -91 -118l42 -101q1 -3 6 -12.5t14 -17t19 -3.5q7 3 15.5 12t12.5 15q8 14 24 14q9 0 14 -4q14 -8 14 -25z" />
            <glyph glyph-name="y" unicode="y" horiz-adv-x="534"
                   d="M477 366.5q8 -10.5 6 -23.5l-19 -99q-52 -266 -60 -307q-18 -87 -63.5 -155.5t-128.5 -92.5q-30 -9 -63 -9q-47 0 -85 19q-14 8 -14 25q0 7 4 14t10.5 10.5t13.5 3.5q9 0 14 -4q2 -2 18 -7t38 -5q23 0 48 7q118 35 152 205q9 42 33 164q-64 -82 -89 -98q-21 -14 -39 -14
q-13 0 -23 7q-21 12 -27 38t-5 48l-2 33q-5 136 -10 186q-1 9 -4 15q-5 -2 -12 -7q-9 -9 -28 -44q-9 -15 -25 -15q-7 0 -13 3q-15 9 -15 25q0 7 3 13q4 9 16.5 29t23.5 30t25 16.5t28 6.5q9 0 18 -3q33 -13 39 -64q4 -40 7.5 -117t4.5 -106v-2q0 -22 3 -33l4 2
q18 12 60.5 66.5t79.5 107.5q2 3 5 5q11 60 16 85t6 29q1 10 9 16.5t18 6.5q14 0 22 -10.5z" />
            <glyph glyph-name="z" unicode="z" horiz-adv-x="424"
                   d="M330.5 18.5q23.5 12.5 39.5 42.5q4 5 4 13t-4 14.5t-11 10.5q-5 4 -14 4q-16 0 -24 -15q-15 -26 -38 -26h-4l-144 4l217 273q6 8 6 17q0 11 -6 18q-8 11 -22 11q-3 0 -11 -2q-13 -6 -37 -6q-31 0 -85 13q-12 4 -27 4q-42 0 -71 -41q-18 -24 -18 -59l1 -14q2 -10 10 -16.5
t18 -6.5q13 0 21.5 9.5t6.5 22.5v7q0 16 6 24q13 17 28 17q7 0 11 -1q44 -12 83 -15l-210 -265q-6 -7 -6 -18q0 -8 2 -11q8 -16 25 -16l200 -5h8q22 0 45.5 12.5z" />


            <glyph glyph-name="zero" unicode="0" horiz-adv-x="493"
                   d="M473 528q0 -33 -2.5 -50.5t-2.5 -18.5q-11 -60 -36 -149.5t-82 -188.5t-140 -120q-18 -5 -33 -5q-44 0 -74 32q-28 28 -40.5 77.5t-12.5 108.5q0 42 6 83.5t15 72.5q37 126 81.5 202t115.5 134q7 6 18 6q14 0 21 -10q5 -6 6 -13q16 8 40 8q58 0 90 -46q30 -44 30 -123z
M418 527q0 62 -21 92q-18 23 -44 23q-19 0 -34.5 -12.5t-22.5 -30.5q-4 -8 -4 -18t6 -14q7 -6 13 -6q2 1 4.5 5t3.5 8q0 11 8 19t19 8h1q12 0 20 -8t8 -19q0 -16 -9.5 -34.5t-27.5 -28.5q-14 -7 -27 -7q-23 0 -47 17q-28 22 -28 59q0 5 2 17q-36 -44 -63 -102t-50 -141
q-19 -66 -19 -141q0 -49 9 -88t28 -58q13 -15 34 -15q8 0 20 3q58 15 103.5 90t73.5 165.5t39 158.5q5 30 5 58z" />
            <glyph glyph-name="one" unicode="1" horiz-adv-x="363"
                   d="M157 -2.5q7 5.5 9 15.5l176 644q2 10 -2 19t-12 14q-6 3 -12 3q-15 0 -22 -10q-104 -118 -167 -118q-10 0 -18 2q-6 1 -10 6.5t-4 11.5q0 8 5 13.5t14 5.5q3 0 11 -2q12 -6 24 -6t19.5 6.5t7.5 16.5q0 12 -8 21q-19 21 -49 21q-19 0 -39 -10q-17 -10 -28 -28.5t-11 -39.5
q0 -26 15.5 -45.5t39.5 -25.5q18 -4 30 -4q60 0 134 63l-148 -543q-3 -11 3 -21.5t17 -13.5q3 -1 8 -1q10 0 17 5.5z" />
            <glyph glyph-name="two" unicode="2" horiz-adv-x="515"
                   d="M439.5 34.5q8.5 7.5 8.5 18.5q0 12 -8.5 20t-19.5 8l-260 1q84 70 169 154q78 78 116.5 130t46.5 103q3 23 3 43q0 82 -51 133q-29 27 -69 40.5t-79 13.5q-22 0 -44 -5q-60 -13 -93 -58t-33 -100q0 -17 3 -32q11 -58 59 -93q32 -24 78 -24q14 0 20 1q44 8 74.5 44
t30.5 80q0 25 -11 47.5t-30 35.5q-25 19 -57 19q-13 0 -20 -2q-25 -6 -42 -26.5t-17 -46.5q0 -14 6 -27.5t17 -23.5q19 -16 38 -16q6 0 9 1q10 1 15.5 6t11.5 13q3 6 3 13q0 15 -14 24q-6 3 -13 3t-13 -3l-0.5 0.5l-0.5 0.5q-6 5 -3 13q0 4 4 9.5t11 6.5q3 1 9 1q12 0 23 -8
q16 -12 19 -33q2 -28 -21.5 -53t-52.5 -25q-23 0 -44 15q-18 12 -28 32.5t-10 45.5q0 38 22 68t63 39q20 4 33 4q29 0 58 -10t49 -29q37 -33 37 -91q0 -17 -3 -37q-7 -40 -42.5 -87t-105.5 -117q-49 -49 -98 -93t-82 -71t-42 -34q-11 -7 -11 -23q0 -5 1 -8q3 -7 10.5 -12
t16.5 -5l334 -1q11 0 19.5 7.5z" />
            <glyph glyph-name="three" unicode="3" horiz-adv-x="533"
                   d="M310 16.5q42 13.5 79 40.5q46 34 70 85.5t24 113.5q0 76 -45 127q-21 23 -52 38q46 24 70 59.5t24 80.5q0 58 -36 96q-17 18 -45.5 30t-69.5 12q-16 0 -25 -1q-42 -4 -70.5 -24t-42.5 -40.5t-17 -28.5q-2 -4 -2 -11q0 -18 17 -26q6 -2 10 -2q9 0 16 4.5t11 12.5
q0 4 9.5 17.5t28 26t45.5 15.5q7 1 20 1q50 0 74 -25q21 -21 21 -57q0 -42 -31 -67t-65.5 -35.5t-43.5 -10.5q-11 -2 -18.5 -10.5t-6.5 -19.5q0 -11 8 -18.5t19 -8.5q15 0 50 -9.5t60 -36.5q30 -34 30 -90q0 -49 -18.5 -88t-53.5 -65q-27 -21 -61.5 -31.5t-65.5 -10.5
q-18 0 -33 3q-43 9 -65.5 41t-22.5 71q0 7 2 21q8 39 38 60q22 15 48 15q30 0 48.5 -22.5t18.5 -51.5q0 -28 -18 -42q-13 -8 -25 -8l-9 1q-13 3 -16 17v4q0 7 3 11l2 1q5 -4 13 -4q7 0 13 3q15 8 15 25q0 7 -3 13q-12 22 -36 22q-20 0 -41 -19q-23 -18 -23 -50
q0 -34 24 -56.5t59 -22.5q32 0 57 18q19 15 30.5 37.5t11.5 48.5q0 54 -36 92.5t-89 38.5q-41 0 -79 -25q-24 -17 -40 -41.5t-21 -54.5q-3 -15 -3 -31q0 -58 34.5 -106t98.5 -61q22 -5 44 -5q41 0 83 13.5z" />
            <glyph glyph-name="four" unicode="4" horiz-adv-x="488"
                   d="M459.5 211q8.5 -9 8.5 -21q0 -11 -8.5 -20t-20.5 -9h-117l-57 -157q-3 -8 -10.5 -13t-16.5 -5q-7 0 -10 2q-8 3 -13 10.5t-5 16.5q0 7 1 10l50 136h-186q-15 0 -25 15q-4 10 -4 14q0 6 4 14q28 48 105 183t98 179q9 23 9 35q0 11 -5 21q-5 8 -12.5 13.5t-13.5 5.5l-6 1
q-14 0 -24 -8q-5 -5 -4 -15l1 -11q6 3 12 3q17 0 27 -16q3 -6 3 -12q0 -8 -4.5 -15t-12.5 -11q-14 -8 -28 -8q-12 0 -26 7q-30 18 -30 66q0 32 22 54q27 24 65 24q9 0 13 -1q18 -3 37 -15t31 -33t12 -49q0 -29 -13 -58q-32 -68 -181 -324h157l109 296q4 9 11 14.5t16 5.5
q13 0 21 -8.5t8 -20.5q0 -4 -2 -10l-101 -277h96q11 0 19.5 -9z" />
            <glyph glyph-name="five" unicode="5" horiz-adv-x="616"
                   d="M309 14.5q43 13.5 79 41.5q45 34 69.5 85t24.5 114q0 77 -45 126q-23 25 -53 40t-59 20l73 194h180q12 0 20 8.5t8 19.5q0 12 -8 20t-20 8h-200q-9 0 -16 -5t-10 -13l-92 -246q-2 -6 -2 -10q0 -8 5 -16q4 -5 10 -8.5t12 -3.5q15 0 50 -9.5t60 -37.5q30 -33 30 -89
q0 -97 -71 -154q-28 -21 -62.5 -31.5t-66.5 -10.5q-17 0 -31 3q-43 9 -66 41t-23 71q0 25 10.5 46t29.5 35q21 15 46 15q9 0 13 -1q22 -4 43 -19t21 -47q0 -16 -6 -29.5t-17 -20.5q-9 -6 -21 -6q-7 0 -10 1q-7 1 -11 6.5t-4 9.5q-1 2 -1 5q0 6 4 10q0 1 1 1q6 -3 13 -3t13 3
q7 3 11.5 10t4.5 15q0 6 -3 12q-12 19 -29 21q-3 1 -9 1q-20 0 -40 -18q-23 -21 -23 -52q0 -32 24.5 -55t57.5 -23q31 0 54 17q22 15 34.5 40t12.5 55q0 46 -29.5 79t-79.5 43q-14 2 -22 2q-43 0 -80 -25q-30 -20 -46.5 -53t-16.5 -73q0 -59 34 -107t98 -61q22 -5 44 -5
q40 0 83 13.5z" />
            <glyph glyph-name="six" unicode="6" horiz-adv-x="491"
                   d="M344 40.5q52 35.5 78 98.5q19 45 19 96q0 61 -26 101q-19 31 -50 48t-68 17q-36 0 -67.5 -14.5t-53.5 -42.5q-18 -23 -27.5 -51t-9.5 -56q0 -22 6 -43q11 -36 37.5 -58t60.5 -22q28 0 52 15t39 42q16 29 16 55q0 23 -12 42q-8 15 -23 23.5t-32 8.5q-24 0 -40 -10.5
t-23.5 -24t-7.5 -21.5q0 -10 5.5 -18t15.5 -10q3 -1 8 -1q9 0 16.5 5.5t10.5 14.5q3 8 15 8q4 0 7 -5q4 -6 4 -13q0 -11 -9 -28q-7 -14 -19 -21.5t-26 -6.5q-14 2 -25 12.5t-16 27.5q-4 18 -4 27q0 41 25 72q11 15 30 25.5t45 10.5q49 0 71 -37q19 -32 19 -73q0 -37 -15 -72
q-19 -42 -55.5 -71t-86.5 -29q-22 0 -46 6q-26 7 -44.5 30.5t-26.5 60.5q-5 27 -5 53q0 99 64.5 218.5t193.5 226.5q10 9 10 22q0 11 -6 18q-9 10 -22 10q-10 0 -18 -6q-144 -121 -211 -249.5t-67 -238.5q0 -39 7 -67q11 -52 40.5 -87t70.5 -46q34 -8 60 -8q64 0 116 35.5z
" />
            <glyph glyph-name="seven" unicode="7" horiz-adv-x="491"
                   d="M155.5 -3q7.5 6 9.5 15q35 140 103.5 281t132.5 243t74 112q6 8 6 18q0 6 -3 12q-7 15 -25 15h-242q-67 0 -107 -32.5t-51 -77.5q-3 -12 -3 -24q0 -42 31 -66q22 -19 51 -19q18 0 32 7q47 22 47 63q0 16 -5 25.5t-14 23.5q-9 9 -22 9q-11 0 -18 -7q-10 -7 -10 -21
q0 -11 7 -18q2 -3 4 -6.5t1 -5.5q0 -5 -14 -11q-5 -3 -10 -3t-14 6q-10 10 -10 23q0 7 1 10q8 32 36 50.5t68 18.5h188q-81 -124 -163.5 -284t-124.5 -328q-3 -11 3 -21t17 -13q3 -1 7 -1q10 0 17.5 6z" />
            <glyph glyph-name="eight" unicode="8" horiz-adv-x="487"
                   d="M467 658q0 -8 -5 -16q-10 -13 -24 -13q-8 0 -16 5q-1 0 -24.5 12.5t-69.5 12.5q-49 0 -95 -27q-17 -11 -26 -24.5t-14 -31.5q-1 -4 -1 -13q0 -30 14 -61.5t31 -52.5q14 -15 36 -36l12 -11q38 26 68 54.5t30 62.5q0 13 -6 26q-9 15 -24 23t-32 8q-9 0 -13 -1
q-24 -10 -24 -22q1 -13 4 -16h3q8 0 9 1q8 6 17 6q14 0 22 -11q7 -7 7 -17q0 -15 -11 -24q-7 -6 -19.5 -10t-25.5 -4q-16 0 -27 5q-37 20 -37 71q0 27 18 47.5t49 29.5q13 3 29 3q33 0 62.5 -16t45.5 -48q12 -25 12 -51q0 -58 -57 -114q-28 -28 -57 -46q38 -45 60 -90
t20 -98q-7 -79 -52 -126t-122 -55l-29 -1q-37 0 -70.5 16t-55.5 43q-29 36 -29 89q0 24 5 43q17 62 67 110t108 82l-38 37q-25 30 -41.5 71t-16.5 80q0 79 68 121q60 36 126 36q45 0 79 -12.5t47 -21.5q13 -10 13 -25zM112 166q-4 -15 -4 -31q0 -30 17 -50q14 -17 35 -27.5
t44 -10.5q57 0 98.5 27.5t46.5 98.5q2 74 -76 156q-138 -77 -161 -163z" />
            <glyph glyph-name="nine" unicode="9" horiz-adv-x="471"
                   d="M133 0q112 81 183.5 170.5t103 174t31.5 156.5q0 23 -3 44q-7 53 -34.5 91t-68.5 53q-41 13 -75 13q-61 0 -112 -32t-80 -91q-28 -56 -28 -114q0 -47 20 -87q20 -37 53.5 -57t76.5 -20q56 0 100 42q29 29 43.5 68.5t14.5 77.5q0 12 -1 17q-3 29 -23.5 50.5t-51.5 29.5
q-14 3 -27 3q-27 0 -50.5 -13t-39.5 -36q-20 -31 -20 -63q0 -19 8 -37q9 -17 25.5 -26.5t35.5 -9.5q27 0 44 14t24 31q2 6 2 9q0 12 -8 21t-21 9q-9 0 -16.5 -5.5t-10.5 -14.5q-5 -8 -16 -8q-1 0 -3.5 1t-4.5 5q-2 6 -2 11q0 15 10 32q17 23 44 23l11 -1q12 -4 21.5 -11.5
t10.5 -19.5q2 -29 -8 -61.5t-33 -53.5q-25 -26 -61 -26q-53 0 -76 45q-14 28 -14 62q0 46 22 84q19 39 55.5 66t84.5 27q27 0 56 -10q27 -9 44.5 -34.5t21.5 -63.5q3 -16 3 -36q0 -65 -32 -142.5t-98.5 -158.5t-165.5 -152q-11 -8 -11 -23q0 -11 5 -17q7 -10 21 -12
q11 0 20 6z" />


            <glyph glyph-name="period" unicode="." horiz-adv-x="200"
                   d="M65 19.5q-15 14.5 -15 35.5t15 35.5t35 14.5q21 0 35.5 -14.5t14.5 -35.5q0 -20 -14.5 -35t-35.5 -15q-20 0 -35 14.5z" />
            <glyph glyph-name="comma" unicode="," horiz-adv-x="206"
                   d="M156 88q0 -28 -14 -48q-10 -15 -32 -27t-35 -14h-5q-14 0 -19 13q-1 2 -1 5q0 12 18 20q14 4 23 10.5t8 13.5q-20 1 -33.5 15.5t-13.5 34.5q0 21 14.5 35.5t35.5 14.5q18 0 32 -12t17 -30q5 -12 5 -31z" />
            <glyph glyph-name="colon" unicode=":" horiz-adv-x="208"
                   d="M65 351q-15 15 -15 35q0 21 15 35.5t35 14.5q21 0 35.5 -14.5t14.5 -35.5q1 -20 -14 -35t-36 -15q-20 0 -35 15zM72.5 50.5q-14.5 14.5 -14.5 35.5q0 20 14.5 35t35.5 15q20 0 35 -15t15 -35q0 -21 -15 -35.5t-35 -14.5q-21 0 -35.5 14.5z" />
            <glyph glyph-name="semicolon" unicode=";" horiz-adv-x="209"
                   d="M64.5 306q-14.5 15 -14.5 35q0 21 14.5 35.5t35.5 14.5q20 0 35 -14.5t15 -35.5q0 -20 -15 -35t-35 -15q-21 0 -35.5 15zM159 62q0 -27 -14 -49q-10 -15 -32.5 -27t-35.5 -14h-5q-14 0 -19 13l-1 5q0 6 5.5 12t13.5 8q33 12 31 24q-20 1 -34 15.5t-14 34.5t15 35t35 15
q17 0 30.5 -11t18.5 -27q6 -16 6 -34z" />

            <glyph glyph-name="exclam" unicode="!" horiz-adv-x="246"
                   d="M100.5 190q-8.5 7 -9.5 18l-40 340l-1 17q0 46 21 69q19 22 49 22q33 0 53 -23q17 -17 21 -40t2 -41q-1 -16 -20 -149t-29 -197q-1 -10 -9 -16.5t-18 -6.5q-11 0 -19.5 7zM84.5 41q-14.5 15 -14.5 35q0 21 14.5 35.5t35.5 14.5q20 0 35 -14.5t15 -35.5q0 -20 -15 -35
t-35 -15q-21 0 -35.5 15z" />
            <glyph glyph-name="question" unicode="?" horiz-adv-x="417"
                   d="M180.5 235q-7.5 6 -10.5 16q0 1 -1 7.5t-1 18.5q0 66 54 106q31 22 59.5 61.5t28.5 78.5q0 33 -18.5 62.5t-57.5 41.5q-12 4 -29 4q-28 0 -50 -12q-35 -17 -46 -56q-3 -10 -3 -23q0 -28 15 -49q17 -22 44 -22q18 0 31.5 10t18.5 20q3 8 3 13q0 8 -4.5 13.5t-10.5 5.5
t-11 -4q-14 -11 -28 -11q-9 0 -14.5 4.5t-6.5 12.5q-1 14 6.5 27t21.5 19q18 7 34 7q18 0 31 -7t20 -17q16 -19 16 -49q0 -22 -9 -42q-12 -27 -38.5 -42.5t-59.5 -15.5q-56 0 -89 45q-26 35 -26 83q0 23 5 38q18 59 73 90q34 19 76 19q25 0 46 -7q54 -16 85.5 -59t31.5 -100
q0 -63 -39.5 -111.5t-71.5 -71.5q-32 -24 -32 -62l1 -12q3 -11 -3 -21.5t-17 -12.5q-3 -2 -7 -2q-10 0 -17.5 6zM167.5 88q-14.5 15 -14.5 35q0 21 14.5 35.5t35.5 14.5q20 0 35 -14.5t15 -35.5q1 -20 -14 -35t-36 -15t-35.5 15z" />


            <glyph glyph-name="asterisk" unicode="*" horiz-adv-x="393"
                   d="M335 513q0 -8 -5 -16q-5 -9 -15 -11q-3 -1 -9 -1q-9 0 -14 5l-66 45v-82q0 -11 -8.5 -19.5t-19.5 -8.5q-12 0 -20.5 8.5t-8.5 19.5v84l-69 -40q-10 -4 -15 -4q-3 0 -11 2q-7 4 -12 11q-4 7 -4 16q0 17 14 24l68 40l-76 44q-7 4 -10.5 10.5t-3.5 13.5q0 9 4 14q9 14 25 14
q7 0 14 -3l76 -45v89q0 12 8.5 20t20.5 8q11 0 19.5 -8t8.5 -20v-88l75 42q6 3 13 3q17 0 26 -15q3 -6 3 -13q0 -16 -15 -25l-75 -42l70 -49q12 -9 12 -23z" />


            <glyph glyph-name="numbersign" unicode="#" horiz-adv-x="746"
                   d="M688 495.5q8 -8.5 8 -19.5q0 -12 -8 -20t-20 -8h-141l-50 -136h137q11 0 19.5 -8t8.5 -20q0 -11 -8 -19.5t-20 -8.5h-157l-76 -207q-4 -8 -11 -13t-15 -5q-4 0 -10 2q-18 8 -18 27q0 6 1 9l68 187h-144l-76 -207q-4 -8 -11 -13t-15 -5q-4 0 -10 2q-18 8 -18 27q0 6 1 9
l68 187h-113q-11 0 -19.5 8.5t-8.5 19.5q0 12 8.5 20t19.5 8h134l50 136h-129q-12 0 -20 8t-8 20q0 11 8 19.5t20 8.5h149l76 207q4 8 11 13t15 5q13 0 21 -8t8 -20q0 -4 -2 -10l-68 -187h144l76 207q8 18 27 18q12 0 20 -8.5t8 -19.5q0 -4 -2 -10l-68 -187h120
q12 0 20 -8.5zM467 448h-145l-50 -136h145z" />

            <glyph glyph-name="slash" unicode="/" horiz-adv-x="263"
                   d="M55 27.5q-7 9.5 -5 20.5l108 713q1 10 9.5 16.5t18.5 6.5q13 0 21 -10t6 -22l-108 -712q-1 -10 -9 -17t-18 -7h-5q-11 2 -18 11.5z" />
            <glyph glyph-name="backslash" unicode="\" horiz-adv-x="264"
                   d="M167 23q-8 7 -9 17l-108 713q-2 11 5 20.5t19 10.5q11 2 20.5 -5t10.5 -18l109 -713q2 -11 -5.5 -21t-18.5 -11h-5q-10 0 -18 7z" />


            <glyph glyph-name="uni2016.vert" orientation="v"
                   d="M117.5 467.5q8.5 8.5 19.5 8.5h732q11 0 19.5 -8.5t8.5 -19.5q0 -12 -8.5 -20t-19.5 -8h-732q-11 0 -19.5 8.5t-8.5 19.5t8.5 19.5zM117.5 284q8.5 8 19.5 8h732q11 0 19.5 -8t8.5 -20q0 -11 -8.5 -19.5t-19.5 -8.5h-732q-11 0 -19.5 8.5t-8.5 19.5q0 12 8.5 20z" />
            <glyph glyph-name="uniFF01.vert" orientation="v"
                   d="M764 245q-8 7 -10 18l-40 340q-1 3 -1 17q0 46 21 70q16 19 45 21h4q32 0 53 -22q17 -18 21 -41t2 -41q-1 -16 -20 -148.5t-29 -196.5q-1 -10 -9 -17t-19 -7q-10 0 -18 7zM741.5 91q-17.5 17 -17.5 40q0 24 17 40.5t41 16.5t40.5 -16.5t16.5 -40.5q1 -23 -16 -40t-41 -17
q-23 0 -40.5 17z" />
            <glyph glyph-name="uniFF0E.vert" vert-adv-y="977" orientation="v"
                   d="M715 642.5q-15 14.5 -15 35.5t15 35.5t35 14.5q21 0 35.5 -14.5t14.5 -35.5q0 -20 -14.5 -35t-35.5 -15q-20 0 -35 14.5z" />
            <glyph glyph-name="uniFF1B.vert" orientation="v"
                   d="M730.5 583q-14.5 15 -14.5 35q0 21 14.5 35.5t35.5 14.5q20 0 35 -14.5t15 -35.5q0 -20 -15 -35t-35 -15q-21 0 -35.5 15zM819 392q0 -29 -12 -51q-11 -20 -33.5 -39t-34.5 -21h-5q-14 0 -19 13v4q0 7 7.5 13t10.5 8q23 22 28 43q-19 2 -32 16.5t-13 33.5q0 20 14.5 35
t35.5 15q17 0 30.5 -11t18.5 -27q4 -14 4 -32z" />

            <glyph glyph-name="parenleft" unicode="(" horiz-adv-x="317"
                   d="M193.5 -81.5q-6.5 4.5 -10.5 11.5q-27 54 -65 178.5t-38 282.5q0 110 22 209t40.5 146.5t40.5 96.5q4 7 11 11t15 4q7 0 13 -3q7 -4 11 -10.5t4 -14.5q0 -7 -3 -13q-25 -50 -61 -165t-36 -261q0 -106 21.5 -202.5t43 -154.5t32.5 -79q3 -6 3 -13q0 -8 -4 -14.5t-11 -10.5
l-6 -2t-8 -1q-8 0 -14.5 4.5z" />
            <glyph glyph-name="parenright" unicode=")" horiz-adv-x="316"
                   d="M95 -85q-7 4 -11 10.5t-4 13.5t3 13q11 21 32.5 79t43 155t21.5 203q0 104 -21.5 198t-48.5 164t-27 64q-3 6 -3 13q0 18 15 25q6 3 13 3q18 0 25 -15q11 -20 35 -82t46 -161t22 -209q0 -112 -22 -213.5t-47 -167.5t-34 -80q-7 -16 -25 -16q-7 0 -13 3z" />
            <glyph glyph-name="braceleft" unicode="{" horiz-adv-x="492"
                   d="M297 729.5q-15 -16.5 -15 -64.5v-153q1 -30 -16 -64.5t-56 -57.5q38 -23 55.5 -56.5t16.5 -63.5v-153q0 -74 42 -81q3 0 5 -1l58 -10q11 -2 17.5 -10t6.5 -18v-5q-2 -11 -12 -17.5t-21 -4.5l-56 10q-11 0 -27.5 6t-31.5 20q-37 36 -37 111v153q0 24 -23.5 56t-96.5 37
q-11 1 -18.5 9t-7.5 19q0 12 8 20t20 8q75 5 97 37.5t22 55.5v154q0 74 37 111q23 22 59 26l56 10q11 2 21 -5t12 -18q-1 -2 -1 -5q0 -10 -6.5 -18t-16.5 -10l-58 -10l-6 -1q-12 0 -27 -16.5z" />
            <glyph glyph-name="braceright" unicode="}" horiz-adv-x="492"
                   d="M404.5 405q7.5 -8 7.5 -19v-2q-1 -11 -8 -18t-18 -8q-75 -6 -97.5 -38t-22.5 -55v-154q0 -75 -38 -111q-15 -14 -31 -20t-27 -6l-57 -10q-11 -2 -21 4.5t-11 17.5q-2 12 4.5 21.5t17.5 11.5l58 10l6 1q12 0 27 16.5t15 64.5v154q-1 30 17 64.5t57 56.5q-39 22 -56.5 56.5
t-16.5 64.5v153q0 52 -20 70q-10 10 -22 11h-5l-58 11q-10 1 -16.5 9t-6.5 18q0 13 10 21.5t23 6.5l56 -10q34 -3 59 -26q37 -37 37 -111v-153q0 -24 23 -56t96 -37q11 -1 18.5 -9z" />
            <glyph glyph-name="bracketleft" unicode="[" horiz-adv-x="342"
                   d="M88.5 -53.5q-8.5 8.5 -8.5 19.5v819q0 12 8.5 20t19.5 8h125q12 0 20 -8t8 -20t-8 -20t-20 -8h-97v-763h98q12 0 20 -8t8 -20q0 -11 -8 -19.5t-20 -8.5h-126q-11 0 -19.5 8.5z" />
            <glyph glyph-name="bracketright" unicode="]" horiz-adv-x="342"
                   d="M88.5 -48q-8.5 8 -8.5 20q0 11 8.5 19.5t19.5 8.5h98v762h-97q-12 0 -20 8.5t-8 20.5q0 11 8 19.5t20 8.5h125q12 0 20 -8.5t8 -19.5v-819q0 -12 -8 -20t-20 -8h-126q-11 0 -19.5 8z" />


            <glyph glyph-name="hyphen" unicode="-" horiz-adv-x="500"
                   d="M94.5 300q-8.5 8 -8.5 20t8.5 20t19.5 8h272q12 0 20 -8t8 -20t-8 -20t-20 -8h-272q-11 0 -19.5 8z" />

            <glyph glyph-name="underscore" unicode="_" horiz-adv-x="500"
                   d="M94.5 0q-8.5 8 -8.5 20t8.5 20t19.5 8h272q12 0 20 -8t8 -20t-8 -20t-20 -8h-272q-11 0 -19.5 8z" />


            <glyph glyph-name="uniFF0D.vert" orientation="v"
                   d="M482 652.5q8 23.5 20 23.5t20 -23.5t8 -56.5v-405q0 -34 -8 -56.5t-20 -22.5t-20 22.5t-8 56.5v405q0 33 8 56.5z" />


            <glyph glyph-name="quotesingle" unicode="'" horiz-adv-x="256"
                   d="M108 460q-8 8 -8 20v200q0 12 8 20t20 8q11 0 19.5 -8t8.5 -20v-200q0 -12 -8.5 -20t-19.5 -8q-12 0 -20 8z" />


            <glyph glyph-name="dollar" unicode="$" horiz-adv-x="553"
                   d="M508.5 656q4.5 -7 4.5 -15q0 -12 -8 -20t-19 -8q-8 0 -12 2q-1 0 -23.5 9t-61.5 14l-63 -210l39 -25l7 -4q38 -24 57 -63t19 -81q0 -23 -4 -39q-9 -38 -37.5 -78.5t-74.5 -63.5q-52 -27 -114 -27h-7l-29 -96q-3 -9 -10.5 -14.5t-16.5 -5.5q-5 0 -8 1q-9 2 -14 9.5
t-5 16.5q0 6 1 9l26 86q-47 9 -98 30q-17 8 -17 26q0 5 2 11q3 8 10.5 13t16.5 5q4 0 10 -2q47 -20 92 -28l89 298q-78 66 -78 137q0 39 22 76q44 74 143 77l25 82q3 9 10 14t16 5q6 0 9 -1q11 -3 16.5 -13.5t2.5 -21.5l-21 -70q32 -5 58 -13.5t33 -11.5q8 -3 12.5 -10z
M238 543q0 -39 41 -77l51 173q-53 -9 -77 -48q-15 -25 -15 -48zM323 362q-7 4 -15 9l-80 -267q42 1 77 20q34 17 55.5 46.5t28.5 57.5q3 12 3 28q0 28 -12 53.5t-38 41.5l-7 3q-5 4 -12 8z" />


            <glyph glyph-name="plus" unicode="+" horiz-adv-x="659"
                   d="M611 405q8 -8 8 -20t-8.5 -20t-19.5 -8h-233v-249q0 -12 -8.5 -20t-20.5 -8q-11 0 -19.5 8t-8.5 20v249h-233q-11 0 -19.5 8t-8.5 20t8.5 20t19.5 8h233v233q0 11 8.5 19.5t19.5 8.5q12 0 20.5 -8.5t8.5 -19.5v-233h233q12 0 20 -8z" />


            <glyph glyph-name="equal" unicode="=" horiz-adv-x="665"
                   d="M617 456.5q8 8.5 8 19.5q0 12 -8 20.5t-20 8.5h-529q-12 0 -20 -8.5t-8 -20.5q0 -11 8 -19.5t20 -8.5h529q12 0 20 8.5zM617 294q8 8 8 20t-8 20t-20 8h-529q-12 0 -20 -8t-8 -20t8 -20t20 -8h529q12 0 20 8z" />


            <glyph glyph-name="asciitilde" unicode="~" horiz-adv-x="725"
                   d="M84 309q28 18 71 37.5t75 19.5q40 0 56.5 -3.5t64.5 -22.5l6 -3q83 -32 149 -32q37 0 73.5 14.5t50 22.5t44.5 29q11 9 11 23q0 10 -6 17q-7 10 -22 10q-11 0 -17 -5q-1 0 -35.5 -24t-86.5 -31q-21 -2 -59.5 5t-82.5 24l-6 2q-51 20 -73 25t-68 5q-34 0 -73 -14
t-67.5 -30t-36.5 -22q-12 -7 -12 -23q0 -9 4 -16q9 -12 24 -12q9 0 16 4z" />
            <glyph glyph-name="asciicircum" unicode="^" horiz-adv-x="412"
                   d="M364 497q8 10 8 19q0 11 -10 21l-143 130q-8 7 -19 7q-12 0 -20 -8l-131 -130q-9 -9 -9 -20t9 -20q10 -8 20 -8t20 8l112 112l124 -113q7 -7 19 -7q13 0 20 9z" />


            <glyph glyph-name="percent" unicode="%" horiz-adv-x="832"
                   d="M229 56l462 625q5 6 5 17q0 12 -8 20t-19 8q-9 0 -18 -6q-56 -45 -125.5 -62t-138.5 -17q-42 0 -61.5 3t-20.5 3l-6 1q-10 0 -18 -8q-11 -9 -9 -24q4 -32 4 -67q0 -113 -54 -167q-20 -20 -41 -28t-35 -7q-21 3 -34 22q-16 20 -16 61q0 24 6 49q11 48 37 84t50 55.5
t32 23.5q13 7 13 24q0 8 -3 14q-4 7 -10.5 10.5t-13.5 3.5q-9 0 -14 -4q-32 -19 -79.5 -68t-66.5 -131q-7 -31 -7 -62q0 -58 26 -93q15 -22 36.5 -33.5t47.5 -11.5q27 0 56.5 12t55.5 38q30 30 50.5 81.5t20.5 127.5q0 23 -1 36q30 -2 57 -2q103 0 183 29l-388 -524
q-6 -7 -6 -17q0 -14 12 -23q8 -5 17 -5q15 0 22 12zM711 62q26 23 44.5 59t27.5 81t9 80q0 36 -6 62.5t-9 29.5q-3 8 -10 13t-15 5q-6 0 -12 -3q-17 -8 -17 -26q0 -3 2 -11q10 -28 10 -71q0 -31 -7 -67q-13 -65 -43.5 -98.5t-62.5 -33.5q-7 0 -10 1q-29 5 -42.5 29t-13.5 59
q0 20 2 30q11 70 43 113.5t62.5 62t42.5 20.5q8 3 13.5 10.5t5.5 16.5q0 5 -1 8q-3 11 -13.5 17t-21.5 3q-44 -15 -106 -67.5t-81 -173.5q-3 -22 -3 -41q0 -63 30 -98t73 -43q6 -2 19 -2q49 0 90 35z" />


            <glyph glyph-name="at" unicode="@"
                   d="M896 552q17 -50 17 -105q0 -27 -5 -60q-11 -68 -48.5 -120.5t-87.5 -84.5t-101 -41q-9 -2 -25 -2q-39 0 -60 23q-17 20 -19 50q-54 -51 -134 -51h-17q-63 5 -94 48q-26 37 -26 93q0 40 13 86q23 84 75.5 133t117.5 49q8 0 22 -2q57 -7 103 -67l11 46q2 11 12 17.5t21 4.5
q11 -3 17.5 -13t4.5 -21l-26 -113q0 -2 -0.5 -5t-2.5 -7l-39 -166q0 -1 -1 -1q-3 -18 -3 -22q0 -15 6 -21q5 -5 16 -5q4 0 16 2q42 7 82.5 32.5t70.5 68t39 98.5q4 23 4 51q0 95 -53 160q-39 49 -103 76.5t-150 32.5q-10 1 -31 1q-78 0 -145 -24t-119 -71
q-56 -52 -85 -116.5t-32 -117.5q-3 -67 15.5 -141.5t84 -138.5t191.5 -80q29 -4 63 -4q75 0 136 19.5t99.5 42t40.5 27.5q8 6 18 6q13 0 22 -10q7 -7 7 -19q0 -14 -10 -21q-45 -30 -68 -44t-91 -35.5t-152 -21.5q-41 0 -72 5q-191 24 -278 162q-69 106 -62 256
q3 63 37 137.5t100 134.5q59 54 135.5 82t165.5 28q22 0 34 -1q98 -6 172.5 -39t121.5 -90q32 -41 49 -91zM523 247.5q34 30.5 66 96.5l3 5l17 73q-14 31 -37.5 59t-53.5 32q-5 1 -14 1q-49 0 -86 -37t-55 -104q-11 -42 -11 -73q0 -37 15 -58q18 -25 65 -25q57 0 91 30.5z
" />


            <glyph glyph-name="bar" unicode="|"
                   d="M515 -45.5q8 8.5 8 19.5v784q0 12 -8 20t-20 8t-20 -8t-8 -20v-784q0 -12 8 -20t20 -8t20 8.5z" />


            <glyph glyph-name="uniFFE3.vert" orientation="v"
                   d="M768 -109.5q8 -8.5 20 -8.5q11 0 19.5 8.5t8.5 19.5v924q0 11 -8.5 19.5t-19.5 8.5q-12 0 -20 -8.5t-8 -19.5v-924q0 -11 8 -19.5z" />


            <glyph glyph-name="grave" unicode="`" horiz-adv-x="600"
                   d="M351 533q12 9 12 24q0 8 -5 16l-71 102q-8 11 -23 11q-10 0 -16 -5q-12 -9 -12 -23q0 -8 5 -16l72 -102q9 -12 23 -12q8 0 15 5z" />
            <glyph glyph-name="brevecombcy" horiz-adv-x="0"
                   d="M-297 572q38 0 62.5 17t36 41.5t11.5 47.5q0 11 -8 19.5t-20 8.5t-20 -8.5t-8 -20.5q0 -16 -11 -32.5t-44 -17.5q-34 0 -49 15q-12 12 -12 33q1 13 -7 21.5t-20 8.5q-11 0 -19 -7.5t-9 -18.5q0 -47 27 -75q30 -33 87 -33q3 0 3 1z" />


        </font>
</defs>
</svg>
